ffmpeg version 4.4.2-0ubuntu0.22.04.1 Copyright (c) 2000-2021 the FFmpeg developers
  built with gcc 11 (Ubuntu 11.2.0-19ubuntu1)
  configuration: --prefix=/usr --extra-version=0ubuntu0.22.04.1 --toolchain=hardened --libdir=/usr/lib/x86_64-linux-gnu --incdir=/usr/include/x86_64-linux-gnu --arch=amd64 --enable-gpl --disable-stripping --enable-gnutls --enable-ladspa --enable-libaom --enable-libass --enable-libbluray --enable-libbs2b --enable-libcaca --enable-libcdio --enable-libcodec2 --enable-libdav1d --enable-libflite --enable-libfontconfig --enable-libfreetype --enable-libfribidi --enable-libgme --enable-libgsm --enable-libjack --enable-libmp3lame --enable-libmysofa --enable-libopenjpeg --enable-libopenmpt --enable-libopus --enable-libpulse --enable-librabbitmq --enable-librubberband --enable-libshine --enable-libsnappy --enable-libsoxr --enable-libspeex --enable-libsrt --enable-libssh --enable-libtheora --enable-libtwolame --enable-libvidstab --enable-libvorbis --enable-libvpx --enable-libwebp --enable-libx265 --enable-libxml2 --enable-libxvid --enable-libzimg --enable-libzmq --enable-libzvbi --enable-lv2 --enable-omx --enable-openal --enable-opencl --enable-opengl --enable-sdl2 --enable-pocketsphinx --enable-librsvg --enable-libmfx --enable-libdc1394 --enable-libdrm --enable-libiec61883 --enable-chromaprint --enable-frei0r --enable-libx264 --enable-shared
  libavutil      56. 70.100 / 56. 70.100
  libavcodec     58.134.100 / 58.134.100
  libavformat    58. 76.100 / 58. 76.100
  libavdevice    58. 13.100 / 58. 13.100
  libavfilter     7.110.100 /  7.110.100
  libswscale      5.  9.100 /  5.  9.100
  libswresample   3.  9.100 /  3.  9.100
  libpostproc    55.  9.100 / 55.  9.100
Input #0, flv, from '/storage/32426326/20250713/32426326-20250713-140312-950.flv':
  Metadata:
    cdn_ip          : 192.168.252.6
    displayHeight   : 1440
    encoder         : obs-output module (libobs version 31.0.2)
    audiochannels   : 2
    fileSize        : 0
    2.1             : false
    displayWidth    : 2560
    4.0             : false
    3.1             : false
    5.1             : false
    7.1             : false
    fps             : 60
    4.1             : false
    Title           : 技术主播没有GG
    Artist          : 蓝音BuBuLine (32426326)
    Comment         : mikufans直播间 32426326 的直播录像
                    : 主播名: 蓝音BuBuLine
                    : 直播标题: 技术主播没有GG
                    : 直播分区: 单机游戏·主机游戏
                    : 录制时间: 2025-07-13T14:03:12.9780087+00:00
                    : 直播服务器:
                    : d1--ov-gotcha07.bilivideo.com [156.59.188.246]
                    : 
                    : 使用 mikufans录播姬 录制 https://rec.danmuji.org
                    : 录播姬版本: 2.17.3
    RecordedBy      : BililiveRecorder mikufans录播姬
    RecordedFrom    : d1--ov-gotcha07.bilivideo.com
    StreamServers   : d1--ov-gotcha07.bilivideo.com [156.59.188.246]
    RecorderVersion : 2.17.3+Branch.tags-v2.17.3.Sha.96407e2eba9a597dd9997c6fb731725f4294a371
    StartTime       : Sun, 13 Jul 2025 14:03:12 +0000
    RoomId          : 32426326
    ShortId         : 0
    Name            : 蓝音BuBuLine
    StreamTitle     : 技术主播没有GG
    AreaNameParent  : 单机游戏
    AreaNameChild   : 主机游戏
  Duration: 07:01:27.31, start: 0.035000, bitrate: 8748 kb/s
  Stream #0:0: Video: h264 (High), yuv420p(tv, bt709, progressive), 2560x1440 [SAR 1:1 DAR 16:9], 10240 kb/s, 60 fps, 60 tbr, 1k tbn, 120 tbc
  Stream #0:1: Audio: aac (LC), 48000 Hz, stereo, fltp, 196 kb/s
Stream mapping:
  Stream #0:0 -> #0:0 (h264 (native) -> png (native))
Press [q] to stop, [?] for help
Output #0, image2, to '/storage/32426326/20250713/32426326-20250713-140312-950.all.thumb.png':
  Metadata:
    cdn_ip          : 192.168.252.6
    displayHeight   : 1440
    AreaNameChild   : 主机游戏
    audiochannels   : 2
    fileSize        : 0
    2.1             : false
    displayWidth    : 2560
    4.0             : false
    3.1             : false
    5.1             : false
    7.1             : false
    fps             : 60
    4.1             : false
    Title           : 技术主播没有GG
    Artist          : 蓝音BuBuLine (32426326)
    Comment         : mikufans直播间 32426326 的直播录像
                    : 主播名: 蓝音BuBuLine
                    : 直播标题: 技术主播没有GG
                    : 直播分区: 单机游戏·主机游戏
                    : 录制时间: 2025-07-13T14:03:12.9780087+00:00
                    : 直播服务器:
                    : d1--ov-gotcha07.bilivideo.com [156.59.188.246]
                    : 
                    : 使用 mikufans录播姬 录制 https://rec.danmuji.org
                    : 录播姬版本: 2.17.3
    RecordedBy      : BililiveRecorder mikufans录播姬
    RecordedFrom    : d1--ov-gotcha07.bilivideo.com
    StreamServers   : d1--ov-gotcha07.bilivideo.com [156.59.188.246]
    RecorderVersion : 2.17.3+Branch.tags-v2.17.3.Sha.96407e2eba9a597dd9997c6fb731725f4294a371
    StartTime       : Sun, 13 Jul 2025 14:03:12 +0000
    RoomId          : 32426326
    ShortId         : 0
    Name            : 蓝音BuBuLine
    StreamTitle     : 技术主播没有GG
    AreaNameParent  : 单机游戏
    encoder         : Lavf58.76.100
  Stream #0:0: Video: png, rgb24(pc, gbr/bt709/bt709, progressive), 2560x1440 [SAR 1:1 DAR 16:9], q=2-31, 200 kb/s, 60 fps, 60 tbn
    Metadata:
      encoder         : Lavc58.134.100 png
frame=    1 fps=0.0 q=0.0 size=N/A time=00:00:00.00 bitrate=N/A speed=   0x    frame=    1 fps=0.0 q=-0.0 Lsize=N/A time=00:00:00.01 bitrate=N/A speed=0.0285x    
video:755kB audio:0kB subtitle:0kB other streams:0kB global headers:0kB muxing overhead: unknown
ffmpeg version 4.4.2-0ubuntu0.22.04.1 Copyright (c) 2000-2021 the FFmpeg developers
  built with gcc 11 (Ubuntu 11.2.0-19ubuntu1)
  configuration: --prefix=/usr --extra-version=0ubuntu0.22.04.1 --toolchain=hardened --libdir=/usr/lib/x86_64-linux-gnu --incdir=/usr/include/x86_64-linux-gnu --arch=amd64 --enable-gpl --disable-stripping --enable-gnutls --enable-ladspa --enable-libaom --enable-libass --enable-libbluray --enable-libbs2b --enable-libcaca --enable-libcdio --enable-libcodec2 --enable-libdav1d --enable-libflite --enable-libfontconfig --enable-libfreetype --enable-libfribidi --enable-libgme --enable-libgsm --enable-libjack --enable-libmp3lame --enable-libmysofa --enable-libopenjpeg --enable-libopenmpt --enable-libopus --enable-libpulse --enable-librabbitmq --enable-librubberband --enable-libshine --enable-libsnappy --enable-libsoxr --enable-libspeex --enable-libsrt --enable-libssh --enable-libtheora --enable-libtwolame --enable-libvidstab --enable-libvorbis --enable-libvpx --enable-libwebp --enable-libx265 --enable-libxml2 --enable-libxvid --enable-libzimg --enable-libzmq --enable-libzvbi --enable-lv2 --enable-omx --enable-openal --enable-opencl --enable-opengl --enable-sdl2 --enable-pocketsphinx --enable-librsvg --enable-libmfx --enable-libdc1394 --enable-libdrm --enable-libiec61883 --enable-chromaprint --enable-frei0r --enable-libx264 --enable-shared
  libavutil      56. 70.100 / 56. 70.100
  libavcodec     58.134.100 / 58.134.100
  libavformat    58. 76.100 / 58. 76.100
  libavdevice    58. 13.100 / 58. 13.100
  libavfilter     7.110.100 /  7.110.100
  libswscale      5.  9.100 /  5.  9.100
  libswresample   3.  9.100 /  3.  9.100
  libpostproc    55.  9.100 / 55.  9.100
[flv @ 0x55b74b5cefc0] Auto-inserting h264_mp4toannexb bitstream filter
Input #0, concat, from '/storage/32426326/20250713/32426326-20250713-140312-950.all.concat.txt':
  Duration: N/A, start: 0.000000, bitrate: 10436 kb/s
  Stream #0:0: Video: h264 (High), yuv420p(tv, bt709, progressive), 2560x1440 [SAR 1:1 DAR 16:9], 10240 kb/s, 60 fps, 60 tbr, 1k tbn, 120 tbc
  Stream #0:1: Audio: aac (LC), 48000 Hz, stereo, fltp, 196 kb/s
Output #0, flv, to '/storage/32426326/20250713/32426326-20250713-140312-950.all.flv':
  Metadata:
    encoder         : Lavf58.76.100
  Stream #0:0: Video: h264 (High) ([7][0][0][0] / 0x0007), yuv420p(tv, bt709, progressive), 2560x1440 [SAR 1:1 DAR 16:9], q=2-31, 10240 kb/s, 60 fps, 60 tbr, 1k tbn, 1k tbc
  Stream #0:1: Audio: aac (LC) ([10][0][0][0] / 0x000A), 48000 Hz, stereo, fltp, 196 kb/s
Stream mapping:
  Stream #0:0 -> #0:0 (copy)
  Stream #0:1 -> #0:1 (copy)
Press [q] to stop, [?] for help
frame=    1 fps=0.0 q=-1.0 size=       0kB time=00:00:00.00 bitrate=N/A speed=N/A    frame= 4096 fps=0.0 q=-1.0 size=   33280kB time=00:01:08.32 bitrate=3990.4kbits/s speed= 137x    frame= 5651 fps=5651 q=-1.0 size=   65792kB time=00:01:34.24 bitrate=5718.6kbits/s speed=94.2x    frame= 7557 fps=5037 q=-1.0 size=   99328kB time=00:02:05.99 bitrate=6458.1kbits/s speed=  84x    frame= 9343 fps=4670 q=-1.0 size=  134144kB time=00:02:35.72 bitrate=7056.8kbits/s speed=77.8x    frame=11369 fps=4546 q=-1.0 size=  168192kB time=00:03:09.48 bitrate=7271.4kbits/s speed=75.8x    frame=12995 fps=4331 q=-1.0 size=  201728kB time=00:03:36.57 bitrate=7630.5kbits/s speed=72.2x    frame=14587 fps=4167 q=-1.0 size=  235008kB time=00:04:03.07 bitrate=7920.0kbits/s speed=69.4x    frame=16198 fps=4048 q=-1.0 size=  268544kB time=00:04:29.90 bitrate=8150.7kbits/s speed=67.5x    frame=17838 fps=3963 q=-1.0 size=  302592kB time=00:04:57.21 bitrate=8340.1kbits/s speed=  66x    frame=19523 fps=3902 q=-1.0 size=  337664kB time=00:05:25.24 bitrate=8504.9kbits/s speed=  65x    frame=21288 fps=3868 q=-1.0 size=  374272kB time=00:05:54.65 bitrate=8645.2kbits/s speed=64.4x    frame=23094 fps=3847 q=-1.0 size=  411904kB time=00:06:24.74 bitrate=8770.2kbits/s speed=64.1x    frame=24832 fps=3818 q=-1.0 size=  448256kB time=00:06:53.69 bitrate=8876.4kbits/s speed=63.6x    frame=26657 fps=3806 q=-1.0 size=  485888kB time=00:07:24.13 bitrate=8962.2kbits/s speed=63.4x    frame=28612 fps=3813 q=-1.0 size=  526592kB time=00:07:56.68 bitrate=9049.6kbits/s speed=63.5x    frame=30618 fps=3825 q=-1.0 size=  562688kB time=00:08:30.08 bitrate=9036.9kbits/s speed=63.7x    frame=32883 fps=3866 q=-1.0 size=  601344kB time=00:09:07.81 bitrate=8992.5kbits/s speed=64.4x    frame=34697 fps=3853 q=-1.0 size=  638720kB time=00:09:38.01 bitrate=9052.4kbits/s speed=64.2x    frame=36325 fps=3821 q=-1.0 size=  672512kB time=00:10:05.13 bitrate=9104.1kbits/s speed=63.7x    frame=37955 fps=3793 q=-1.0 size=  706304kB time=00:10:32.27 bitrate=9151.1kbits/s speed=63.2x    frame=39571 fps=3766 q=-1.0 size=  739840kB time=00:10:59.19 bitrate=9194.3kbits/s speed=62.7x    frame=41244 fps=3747 q=-1.0 size=  774912kB time=00:11:27.05 bitrate=9239.6kbits/s speed=62.4x    frame=43174 fps=3752 q=-1.0 size=  814592kB time=00:11:59.18 bitrate=9278.7kbits/s speed=62.5x    frame=45018 fps=3749 q=-1.0 size=  852736kB time=00:12:29.89 bitrate=9315.5kbits/s speed=62.4x    frame=46871 fps=3747 q=-1.0 size=  891648kB time=00:13:00.74 bitrate=9355.7kbits/s speed=62.4x    frame=48823 fps=3753 q=-1.0 size=  932096kB time=00:13:33.24 bitrate=9389.2kbits/s speed=62.5x    frame=50710 fps=3754 q=-1.0 size=  971264kB time=00:14:04.66 bitrate=9419.8kbits/s speed=62.5x    frame=52644 fps=3758 q=-1.0 size= 1011456kB time=00:14:36.86 bitrate=9449.5kbits/s speed=62.6x    frame=54597 fps=3763 q=-1.0 size= 1051904kB time=00:15:09.42 bitrate=9475.5kbits/s speed=62.7x    frame=56451 fps=3761 q=-1.0 size= 1090560kB time=00:15:40.28 bitrate=9501.2kbits/s speed=62.6x    frame=58195 fps=3752 q=-1.0 size= 1126656kB time=00:16:09.37 bitrate=9521.2kbits/s speed=62.5x    frame=60114 fps=3754 q=-1.0 size= 1166592kB time=00:16:41.30 bitrate=9544.3kbits/s speed=62.5x    frame=61889 fps=3748 q=-1.0 size= 1203200kB time=00:17:10.88 bitrate=9561.3kbits/s speed=62.4x    frame=63677 fps=3743 q=-1.0 size= 1240320kB time=00:17:40.65 bitrate=9579.7kbits/s speed=62.3x    frame=65792 fps=3757 q=-1.0 size= 1280512kB time=00:18:15.88 bitrate=9572.1kbits/s speed=62.6x    frame=67914 fps=3771 q=-1.0 size= 1318656kB time=00:18:51.24 bitrate=9549.1kbits/s speed=62.8x    frame=69704 fps=3765 q=-1.0 size= 1354752kB time=00:19:21.04 bitrate=9558.8kbits/s speed=62.7x    frame=71645 fps=3768 q=-1.0 size= 1395456kB time=00:19:53.37 bitrate=9579.2kbits/s speed=62.8x    frame=73509 fps=3767 q=-1.0 size= 1433856kB time=00:20:24.42 bitrate=9593.2kbits/s speed=62.8x    frame=75264 fps=3761 q=-1.0 size= 1470464kB time=00:20:53.64 bitrate=9608.8kbits/s speed=62.6x    frame=77183 fps=3763 q=-1.0 size= 1510400kB time=00:21:25.60 bitrate=9624.4kbits/s speed=62.7x    frame=78975 fps=3758 q=-1.0 size= 1547520kB time=00:21:55.44 bitrate=9637.3kbits/s speed=62.6x    frame=80922 fps=3762 q=-1.0 size= 1587968kB time=00:22:27.86 bitrate=9651.3kbits/s speed=62.7x    frame=82778 fps=3760 q=-1.0 size= 1626368kB time=00:22:58.76 bitrate=9663.2kbits/s speed=62.6x    frame=84639 fps=3760 q=-1.0 size= 1665024kB time=00:23:29.78 bitrate=9675.1kbits/s speed=62.6x    frame=86574 fps=3762 q=-1.0 size= 1705472kB time=00:24:02.02 bitrate=9688.6kbits/s speed=62.7x    frame=88483 fps=3763 q=-1.0 size= 1745408kB time=00:24:33.82 bitrate=9701.6kbits/s speed=62.7x    frame=90276 fps=3759 q=-1.0 size= 1782528kB time=00:25:03.68 bitrate=9711.1kbits/s speed=62.6x    frame=92209 fps=3762 q=-1.0 size= 1822720kB time=00:25:35.88 bitrate=9721.9kbits/s speed=62.7x    frame=94436 fps=3775 q=-1.0 size= 1863680kB time=00:26:12.97 bitrate=9706.0kbits/s speed=62.9x    frame=96065 fps=3765 q=-1.0 size= 1896960kB time=00:26:40.10 bitrate=9711.8kbits/s speed=62.7x    frame=98328 fps=3780 q=-1.0 size= 1935872kB time=00:27:17.78 bitrate=9683.0kbits/s speed=  63x    frame=100265 fps=3781 q=-1.0 size= 1976064kB time=00:27:50.04 bitrate=9693.1kbits/s speed=  63x    frame=102036 fps=3777 q=-1.0 size= 2012928kB time=00:28:19.53 bitrate=9702.6kbits/s speed=62.9x    frame=103991 fps=3779 q=-1.0 size= 2053376kB time=00:28:52.10 bitrate=9711.5kbits/s speed=62.9x    frame=105807 fps=3777 q=-1.0 size= 2091008kB time=00:29:22.36 bitrate=9719.7kbits/s speed=62.9x    frame=107512 fps=3770 q=-1.0 size= 2126592kB time=00:29:50.75 bitrate=9728.3kbits/s speed=62.8x    frame=109469 fps=3773 q=-1.0 size= 2167296kB time=00:30:23.35 bitrate=9737.2kbits/s speed=62.8x    frame=111339 fps=3772 q=-1.0 size= 2206208kB time=00:30:54.51 bitrate=9745.6kbits/s speed=62.8x    frame=113187 fps=3771 q=-1.0 size= 2244608kB time=00:31:25.25 bitrate=9753.5kbits/s speed=62.8x    frame=115126 fps=3772 q=-1.0 size= 2285056kB time=00:31:57.55 bitrate=9762.0kbits/s speed=62.8x    frame=117261 fps=3780 q=-1.0 size= 2324736kB time=00:32:33.15 bitrate=9750.5kbits/s speed=  63x    frame=119505 fps=3791 q=-1.0 size= 2363648kB time=00:33:10.52 bitrate=9727.6kbits/s speed=63.2x    frame=121466 fps=3793 q=-1.0 size= 2404352kB time=00:33:43.17 bitrate=9735.4kbits/s speed=63.2x    frame=123359 fps=3793 q=-1.0 size= 2443776kB time=00:34:14.70 bitrate=9743.2kbits/s speed=63.2x    frame=124988 fps=3785 q=-1.0 size= 2477568kB time=00:34:41.84 bitrate=9749.1kbits/s speed=  63x    frame=127162 fps=3794 q=-1.0 size= 2517248kB time=00:35:18.02 bitrate=9736.1kbits/s speed=63.2x    frame=128954 fps=3790 q=-1.0 size= 2554624kB time=00:35:47.87 bitrate=9743.4kbits/s speed=63.1x    frame=131222 fps=3801 q=-1.0 size= 2593024kB time=00:36:25.63 bitrate=9718.9kbits/s speed=63.3x    frame=133085 fps=3800 q=-1.0 size= 2631424kB time=00:36:56.68 bitrate=9724.7kbits/s speed=63.3x    frame=134973 fps=3800 q=-1.0 size= 2670848kB time=00:37:28.13 bitrate=9732.3kbits/s speed=63.3x    frame=136713 fps=3795 q=-1.0 size= 2706944kB time=00:37:57.12 bitrate=9738.3kbits/s speed=63.2x    frame=138592 fps=3795 q=-1.0 size= 2746112kB time=00:38:28.42 bitrate=9745.2kbits/s speed=63.2x    frame=140387 fps=3792 q=-1.0 size= 2783232kB time=00:38:58.30 bitrate=9750.8kbits/s speed=63.2x    frame=142332 fps=3793 q=-1.0 size= 2823680kB time=00:39:30.71 bitrate=9757.2kbits/s speed=63.2x    frame=144393 fps=3797 q=-1.0 size= 2866432kB time=00:40:05.02 bitrate=9763.6kbits/s speed=63.2x    frame=146251 fps=3796 q=-1.0 size= 2904832kB time=00:40:35.99 bitrate=9768.7kbits/s speed=63.2x    frame=148049 fps=3794 q=-1.0 size= 2942464kB time=00:41:05.93 bitrate=9775.1kbits/s speed=63.2x    frame=149912 fps=3793 q=-1.0 size= 2981376kB time=00:41:36.98 bitrate=9781.2kbits/s speed=63.2x    frame=151794 fps=3792 q=-1.0 size= 3020544kB time=00:42:08.32 bitrate=9786.8kbits/s speed=63.2x    frame=153628 fps=3791 q=-1.0 size= 3058432kB time=00:42:38.86 bitrate=9791.3kbits/s speed=63.1x    frame=155549 fps=3791 q=-1.0 size= 3098112kB time=00:43:10.88 bitrate=9795.8kbits/s speed=63.1x    frame=157377 fps=3790 q=-1.0 size= 3136000kB time=00:43:41.32 bitrate=9800.4kbits/s speed=63.1x    frame=159310 fps=3790 q=-1.0 size= 3176448kB time=00:44:13.50 bitrate=9806.5kbits/s speed=63.1x    frame=161251 fps=3792 q=-1.0 size= 3216640kB time=00:44:45.80 bitrate=9811.1kbits/s speed=63.2x    frame=163384 fps=3797 q=-1.0 size= 3256320kB time=00:45:21.35 bitrate=9802.4kbits/s speed=63.2x    frame=165609 fps=3804 q=-1.0 size= 3292928kB time=00:45:58.41 bitrate=9779.4kbits/s speed=63.4x    frame=167519 fps=3805 q=-1.0 size= 3332608kB time=00:46:30.21 bitrate=9784.4kbits/s speed=63.4x    frame=169199 fps=3800 q=-1.0 size= 3367680kB time=00:46:58.18 bitrate=9789.3kbits/s speed=63.3x    frame=171076 fps=3799 q=-1.0 size= 3406848kB time=00:47:29.42 bitrate=9794.6kbits/s speed=63.3x    frame=172995 fps=3799 q=-1.0 size= 3446528kB time=00:48:01.37 bitrate=9798.8kbits/s speed=63.3x    frame=174862 fps=3798 q=-1.0 size= 3485184kB time=00:48:32.49 bitrate=9802.8kbits/s speed=63.3x    frame=176831 fps=3800 q=-1.0 size= 3526144kB time=00:49:05.28 bitrate=9807.6kbits/s speed=63.3x    frame=178743 fps=3800 q=-1.0 size= 3565824kB time=00:49:37.13 bitrate=9811.9kbits/s speed=63.3x    frame=180626 fps=3800 q=-1.0 size= 3604992kB time=00:50:08.50 bitrate=9816.2kbits/s speed=63.3x    frame=182351 fps=3796 q=-1.0 size= 3640576kB time=00:50:37.24 bitrate=9819.3kbits/s speed=63.2x    frame=184270 fps=3796 q=-1.0 size= 3680512kB time=00:51:09.19 bitrate=9823.7kbits/s speed=63.2x    frame=186122 fps=3796 q=-1.0 size= 3718912kB time=00:51:40.05 bitrate=9827.4kbits/s speed=63.2x    frame=187991 fps=3795 q=-1.0 size= 3757824kB time=00:52:11.15 bitrate=9831.6kbits/s speed=63.2x    frame=189852 fps=3794 q=-1.0 size= 3796480kB time=00:52:42.19 bitrate=9835.2kbits/s speed=63.2x    frame=191708 fps=3793 q=-1.0 size= 3834880kB time=00:53:13.10 bitrate=9838.5kbits/s speed=63.2x    frame=193784 fps=3797 q=-1.0 size= 3878144kB time=00:53:47.68 bitrate=9842.9kbits/s speed=63.2x    frame=195872 fps=3800 q=-1.0 size= 3921664kB time=00:54:22.45 bitrate=9847.3kbits/s speed=63.3x    frame=197756 fps=3800 q=-1.0 size= 3956480kB time=00:54:53.83 bitrate=9840.0kbits/s speed=63.3x    frame=199619 fps=3799 q=-1.0 size= 3995136kB time=00:55:24.84 bitrate=9843.5kbits/s speed=63.3x    frame=201935 fps=3807 q=-1.0 size= 4033792kB time=00:56:03.45 bitrate=9824.7kbits/s speed=63.4x    frame=203603 fps=3803 q=-1.0 size= 4068352kB time=00:56:31.21 bitrate=9827.7kbits/s speed=63.3x    frame=205454 fps=3802 q=-1.0 size= 4107008kB time=00:57:02.06 bitrate=9831.7kbits/s speed=63.3x    frame=207302 fps=3801 q=-1.0 size= 4145664kB time=00:57:32.84 bitrate=9835.7kbits/s speed=63.3x    frame=209192 fps=3801 q=-1.0 size= 4184576kB time=00:58:04.28 bitrate=9838.5kbits/s speed=63.3x    frame=211085 fps=3800 q=-1.0 size= 4224000kB time=00:58:35.84 bitrate=9842.0kbits/s speed=63.3x    frame=213050 fps=3802 q=-1.0 size= 4264960kB time=00:59:08.55 bitrate=9845.9kbits/s speed=63.3x    frame=214851 fps=3800 q=-1.0 size= 4302336kB time=00:59:38.57 bitrate=9848.8kbits/s speed=63.3x    frame=216768 fps=3800 q=-1.0 size= 4342528kB time=01:00:10.51 bitrate=9852.9kbits/s speed=63.3x    frame=218678 fps=3800 q=-1.0 size= 4381952kB time=01:00:42.30 bitrate=9855.6kbits/s speed=63.3x    frame=220224 fps=3794 q=-1.0 size= 4413952kB time=01:01:08.08 bitrate=9857.8kbits/s speed=63.2x    frame=222103 fps=3794 q=-1.0 size= 4453376kB time=01:01:39.35 bitrate=9861.7kbits/s speed=63.2x    frame=224001 fps=3794 q=-1.0 size= 4492544kB time=01:02:11.00 bitrate=9864.1kbits/s speed=63.2x    frame=225879 fps=3793 q=-1.0 size= 4531456kB time=01:02:42.28 bitrate=9866.8kbits/s speed=63.2x    frame=227812 fps=3794 q=-1.0 size= 4571904kB time=01:03:14.48 bitrate=9870.4kbits/s speed=63.2x    frame=230044 fps=3800 q=-1.0 size= 4613120kB time=01:03:51.64 bitrate=9862.8kbits/s speed=63.3x    frame=232000 fps=3800 q=-1.0 size= 4648192kB time=01:04:24.18 bitrate=9854.1kbits/s speed=63.3x    frame=233978 fps=3802 q=-1.0 size= 4688896kB time=01:04:57.14 bitrate=9856.3kbits/s speed=63.3x    frame=235917 fps=3802 q=-1.0 size= 4729344kB time=01:05:29.43 bitrate=9859.6kbits/s speed=63.3x    frame=237789 fps=3802 q=-1.0 size= 4768000kB time=01:06:00.65 bitrate=9861.9kbits/s speed=63.3x    frame=239715 fps=3802 q=-1.0 size= 4807936kB time=01:06:32.71 bitrate=9864.6kbits/s speed=63.3x    frame=241632 fps=3802 q=-1.0 size= 4847872kB time=01:07:04.61 bitrate=9867.7kbits/s speed=63.3x    frame=243310 fps=3799 q=-1.0 size= 4882688kB time=01:07:32.57 bitrate=9870.0kbits/s speed=63.3x    frame=245156 fps=3798 q=-1.0 size= 4921088kB time=01:08:03.33 bitrate=9872.7kbits/s speed=63.3x    frame=247002 fps=3797 q=-1.0 size= 4959488kB time=01:08:34.05 bitrate=9875.4kbits/s speed=63.2x    frame=248815 fps=3796 q=-1.0 size= 4996864kB time=01:09:04.26 bitrate=9877.3kbits/s speed=63.2x    frame=250862 fps=3798 q=-1.0 size= 5035776kB time=01:09:38.32 bitrate=9873.1kbits/s speed=63.3x    frame=253137 fps=3804 q=-1.0 size= 5074176kB time=01:10:16.19 bitrate=9859.1kbits/s speed=63.4x    frame=254770 fps=3800 q=-1.0 size= 5108224kB time=01:10:43.39 bitrate=9861.6kbits/s speed=63.3x    frame=256603 fps=3799 q=-1.0 size= 5146368kB time=01:11:13.92 bitrate=9864.2kbits/s speed=63.3x    frame=258467 fps=3798 q=-1.0 size= 5185024kB time=01:11:44.93 bitrate=9866.8kbits/s speed=63.3x    frame=260266 fps=3797 q=-1.0 size= 5222400kB time=01:12:14.94 bitrate=9869.1kbits/s speed=63.2x    frame=262094 fps=3796 q=-1.0 size= 5260544kB time=01:12:45.36 bitrate=9871.9kbits/s speed=63.2x    frame=263885 fps=3794 q=-1.0 size= 5297664kB time=01:13:15.19 bitrate=9874.1kbits/s speed=63.2x    frame=265626 fps=3792 q=-1.0 size= 5333760kB time=01:13:44.21 bitrate=9876.1kbits/s speed=63.2x    frame=267511 fps=3792 q=-1.0 size= 5372928kB time=01:14:15.62 bitrate=9878.5kbits/s speed=63.2x    frame=269380 fps=3791 q=-1.0 size= 5411840kB time=01:14:46.73 bitrate=9881.1kbits/s speed=63.1x    frame=271258 fps=3791 q=-1.0 size= 5450752kB time=01:15:18.01 bitrate=9883.2kbits/s speed=63.1x    frame=273163 fps=3791 q=-1.0 size= 5490432kB time=01:15:49.77 bitrate=9885.7kbits/s speed=63.1x    frame=275057 fps=3791 q=-1.0 size= 5529856kB time=01:16:21.32 bitrate=9888.1kbits/s speed=63.1x    frame=276705 fps=3788 q=-1.0 size= 5564160kB time=01:16:48.77 bitrate=9890.2kbits/s speed=63.1x    frame=278682 fps=3789 q=-1.0 size= 5605120kB time=01:17:21.68 bitrate=9892.3kbits/s speed=63.1x    frame=280538 fps=3788 q=-1.0 size= 5643520kB time=01:17:52.62 bitrate=9894.2kbits/s speed=63.1x    frame=282509 fps=3789 q=-1.0 size= 5684480kB time=01:18:25.46 bitrate=9896.4kbits/s speed=63.1x    frame=284689 fps=3793 q=-1.0 size= 5724160kB time=01:19:01.75 bitrate=9889.2kbits/s speed=63.2x    frame=286539 fps=3792 q=-1.0 size= 5762560kB time=01:19:32.61 bitrate=9891.2kbits/s speed=63.2x    frame=288808 fps=3797 q=-1.0 size= 5800960kB time=01:20:10.39 bitrate=9878.9kbits/s speed=63.2x    frame=290679 fps=3797 q=-1.0 size= 5840128kB time=01:20:41.54 bitrate=9881.6kbits/s speed=63.2x    frame=292436 fps=3795 q=-1.0 size= 5876480kB time=01:21:10.82 bitrate=9883.4kbits/s speed=63.2x    frame=294250 fps=3794 q=-1.0 size= 5914112kB time=01:21:41.04 bitrate=9885.3kbits/s speed=63.2x    frame=296114 fps=3794 q=-1.0 size= 5952768kB time=01:22:12.10 bitrate=9887.3kbits/s speed=63.2x    frame=297887 fps=3792 q=-1.0 size= 5989632kB time=01:22:41.61 bitrate=9889.3kbits/s speed=63.2x    frame=299672 fps=3791 q=-1.0 size= 6026752kB time=01:23:11.38 bitrate=9891.3kbits/s speed=63.1x    frame=301555 fps=3790 q=-1.0 size= 6065920kB time=01:23:42.74 bitrate=9893.4kbits/s speed=63.1x    frame=303351 fps=3789 q=-1.0 size= 6103040kB time=01:24:12.65 bitrate=9895.0kbits/s speed=63.1x    frame=305172 fps=3788 q=-1.0 size= 6140928kB time=01:24:42.97 bitrate=9897.1kbits/s speed=63.1x    frame=307053 fps=3788 q=-1.0 size= 6180096kB time=01:25:14.26 bitrate=9899.2kbits/s speed=63.1x    frame=309050 fps=3789 q=-1.0 size= 6221824kB time=01:25:47.50 bitrate=9901.7kbits/s speed=63.1x    frame=311373 fps=3794 q=-1.0 size= 6264576kB time=01:26:26.19 bitrate=9895.4kbits/s speed=63.2x    frame=313240 fps=3794 q=-1.0 size= 6298624kB time=01:26:57.29 bitrate=9889.9kbits/s speed=63.2x    frame=315356 fps=3797 q=-1.0 size= 6340096kB time=01:27:32.56 bitrate=9888.1kbits/s speed=63.2x    frame=317212 fps=3796 q=-1.0 size= 6378752kB time=01:28:03.48 bitrate=9890.2kbits/s speed=63.2x    frame=318993 fps=3795 q=-1.0 size= 6415616kB time=01:28:33.11 bitrate=9891.9kbits/s speed=63.2x    frame=320935 fps=3795 q=-1.0 size= 6456064kB time=01:29:05.47 bitrate=9894.0kbits/s speed=63.2x    frame=322733 fps=3794 q=-1.0 size= 6493696kB time=01:29:35.40 bitrate=9896.2kbits/s speed=63.2x    frame=324580 fps=3793 q=-1.0 size= 6531840kB time=01:30:06.19 bitrate=9897.7kbits/s speed=63.2x    frame=326443 fps=3793 q=-1.0 size= 6570496kB time=01:30:37.23 bitrate=9899.4kbits/s speed=63.2x    frame=328220 fps=3792 q=-1.0 size= 6607360kB time=01:31:06.84 bitrate=9901.1kbits/s speed=63.2x    frame=329960 fps=3790 q=-1.0 size= 6643456kB time=01:31:35.80 bitrate=9902.7kbits/s speed=63.1x    frame=331836 fps=3790 q=-1.0 size= 6682368kB time=01:32:07.07 bitrate=9904.3kbits/s speed=63.1x    frame=333612 fps=3788 q=-1.0 size= 6718976kB time=01:32:36.65 bitrate=9905.6kbits/s speed=63.1x    frame=335459 fps=3788 q=-1.0 size= 6757632kB time=01:33:07.41 bitrate=9907.7kbits/s speed=63.1x    frame=337375 fps=3788 q=-1.0 size= 6797056kB time=01:33:39.32 bitrate=9908.9kbits/s speed=63.1x    frame=339391 fps=3789 q=-1.0 size= 6834176kB time=01:34:12.90 bitrate=9903.9kbits/s speed=63.1x    frame=341417 fps=3791 q=-1.0 size= 6870784kB time=01:34:46.64 bitrate=9897.8kbits/s speed=63.1x    frame=343352 fps=3791 q=-1.0 size= 6910976kB time=01:35:18.89 bitrate=9899.6kbits/s speed=63.1x    frame=345030 fps=3789 q=-1.0 size= 6945792kB time=01:35:46.82 bitrate=9901.1kbits/s speed=63.1x    frame=346637 fps=3786 q=-1.0 size= 6979072kB time=01:36:13.55 bitrate=9902.5kbits/s speed=63.1x    frame=348371 fps=3784 q=-1.0 size= 7015168kB time=01:36:42.46 bitrate=9904.1kbits/s speed=  63x    frame=350034 fps=3781 q=-1.0 size= 7049728kB time=01:37:10.17 bitrate=9905.6kbits/s speed=  63x    frame=351776 fps=3780 q=-1.0 size= 7086080kB time=01:37:39.19 bitrate=9907.4kbits/s speed=  63x    frame=353617 fps=3779 q=-1.0 size= 7123968kB time=01:38:09.83 bitrate=9908.5kbits/s speed=62.9x    frame=355323 fps=3777 q=-1.0 size= 7159808kB time=01:38:38.24 bitrate=9910.6kbits/s speed=62.9x    frame=357172 fps=3777 q=-1.0 size= 7197952kB time=01:39:09.06 bitrate=9911.8kbits/s speed=62.9x    frame=359036 fps=3777 q=-1.0 size= 7236608kB time=01:39:40.10 bitrate=9913.3kbits/s speed=62.9x    frame=360710 fps=3774 q=-1.0 size= 7271424kB time=01:40:07.97 bitrate=9914.7kbits/s speed=62.9x    frame=362446 fps=3773 q=-1.0 size= 7307264kB time=01:40:36.88 bitrate=9915.9kbits/s speed=62.8x    frame=364344 fps=3773 q=-1.0 size= 7346944kB time=01:41:08.50 bitrate=9917.8kbits/s speed=62.8x    frame=365988 fps=3770 q=-1.0 size= 7380992kB time=01:41:35.86 bitrate=9919.0kbits/s speed=62.8x    frame=367741 fps=3769 q=-1.0 size= 7417344kB time=01:42:05.09 bitrate=9920.3kbits/s speed=62.8x    frame=369547 fps=3768 q=-1.0 size= 7454976kB time=01:42:35.17 bitrate=9921.9kbits/s speed=62.8x    frame=371272 fps=3766 q=-1.0 size= 7490816kB time=01:43:03.86 bitrate=9923.4kbits/s speed=62.7x    frame=373057 fps=3765 q=-1.0 size= 7526400kB time=01:43:33.63 bitrate=9922.7kbits/s speed=62.7x    frame=377853 fps=3795 q=-1.0 size= 7563520kB time=01:44:53.52 bitrate=9845.1kbits/s speed=63.2x    frame=380686 fps=3804 q=-1.0 size= 7596288kB time=01:45:40.69 bitrate=9814.2kbits/s speed=63.4x    frame=383688 fps=3815 q=-1.0 size= 7633664kB time=01:46:30.70 bitrate=9785.3kbits/s speed=63.5x    frame=385728 fps=3816 q=-1.0 size= 7673856kB time=01:47:04.69 bitrate=9784.8kbits/s speed=63.6x    frame=388276 fps=3822 q=-1.0 size= 7709696kB time=01:47:47.17 bitrate=9765.9kbits/s speed=63.7x    frame=390776 fps=3828 q=-1.0 size= 7743744kB time=01:48:28.80 bitrate=9746.3kbits/s speed=63.8x    frame=392974 fps=3831 q=-1.0 size= 7776768kB time=01:49:05.43 bitrate=9733.1kbits/s speed=63.8x    frame=395679 fps=3839 q=-1.0 size= 7816448kB time=01:49:50.47 bitrate=9715.9kbits/s speed=63.9x    frame=398418 fps=3846 q=-1.0 size= 7856640kB time=01:50:36.13 bitrate=9698.7kbits/s speed=64.1x    frame=400657 fps=3849 q=-1.0 size= 7895552kB time=01:51:13.41 bitrate=9692.2kbits/s speed=64.1x    frame=403096 fps=3854 q=-1.0 size= 7932672kB time=01:51:54.04 bitrate=9678.9kbits/s speed=64.2x    frame=405667 fps=3860 q=-1.0 size= 7969280kB time=01:52:36.82 bitrate=9662.0kbits/s speed=64.3x    frame=407620 fps=3861 q=-1.0 size= 8003072kB time=01:53:09.39 bitrate=9656.4kbits/s speed=64.3x    frame=409876 fps=3864 q=-1.0 size= 8043008kB time=01:53:46.96 bitrate=9651.2kbits/s speed=64.4x    frame=412182 fps=3867 q=-1.0 size= 8082176kB time=01:54:25.38 bitrate=9643.9kbits/s speed=64.4x    frame=414120 fps=3867 q=-1.0 size= 8118528kB time=01:54:57.67 bitrate=9641.9kbits/s speed=64.4x    frame=417467 fps=3880 q=-1.0 size= 8156160kB time=01:55:53.44 bitrate=9608.9kbits/s speed=64.6x    frame=420771 fps=3893 q=-1.0 size= 8194048kB time=01:56:48.50 bitrate=9577.7kbits/s speed=64.8x    frame=423383 fps=3899 q=-1.0 size= 8233216kB time=01:57:32.03 bitrate=9564.1kbits/s speed=64.9x    frame=426938 fps=3914 q=-1.0 size= 8269056kB time=01:58:31.21 bitrate=9525.8kbits/s speed=65.2x    frame=429325 fps=3918 q=-1.0 size= 8306176kB time=01:59:10.99 bitrate=9515.3kbits/s speed=65.3x    frame=431603 fps=3921 q=-1.0 size= 8341760kB time=01:59:48.98 bitrate=9505.6kbits/s speed=65.3x    frame=434073 fps=3925 q=-1.0 size= 8382976kB time=02:00:30.13 bitrate=9498.2kbits/s speed=65.4x    frame=436306 fps=3928 q=-1.0 size= 8422144kB time=02:01:07.34 bitrate=9493.7kbits/s speed=65.4x    frame=439026 fps=3934 q=-1.0 size= 8459520kB time=02:01:52.65 bitrate=9476.8kbits/s speed=65.5x    frame=441338 fps=3937 q=-1.0 size= 8498688kB time=02:02:31.16 bitrate=9470.8kbits/s speed=65.6x    frame=443715 fps=3941 q=-1.0 size= 8536576kB time=02:03:10.77 bitrate=9462.0kbits/s speed=65.6x    frame=446159 fps=3945 q=-1.0 size= 8570624kB time=02:03:51.51 bitrate=9447.7kbits/s speed=65.7x    frame=449873 fps=3961 q=-1.0 size= 8606464kB time=02:04:53.36 bitrate=9408.9kbits/s speed=  66x    frame=452509 fps=3966 q=-1.0 size= 8642560kB time=02:05:37.29 bitrate=9393.3kbits/s speed=66.1x    frame=454520 fps=3967 q=-1.0 size= 8679168kB time=02:06:10.79 bitrate=9391.3kbits/s speed=66.1x    frame=456854 fps=3970 q=-1.0 size= 8717824kB time=02:06:49.65 bitrate=9385.0kbits/s speed=66.1x    frame=458944 fps=3970 q=-1.0 size= 8757504kB time=02:07:24.45 bitrate=9384.8kbits/s speed=66.1x    frame=460722 fps=3969 q=-1.0 size= 8794368kB time=02:07:54.09 bitrate=9387.9kbits/s speed=66.1x    frame=462885 fps=3970 q=-1.0 size= 8834560kB time=02:08:30.13 bitrate=9386.7kbits/s speed=66.1x    frame=464896 fps=3970 q=-1.0 size= 8873216kB time=02:09:03.63 bitrate=9387.0kbits/s speed=66.1x    frame=467040 fps=3972 q=-1.0 size= 8912128kB time=02:09:39.34 bitrate=9384.9kbits/s speed=66.2x    frame=469066 fps=3972 q=-1.0 size= 8951552kB time=02:10:13.11 bitrate=9385.6kbits/s speed=66.2x    frame=471200 fps=3973 q=-1.0 size= 8995584kB time=02:10:48.64 bitrate=9389.1kbits/s speed=66.2x    frame=473419 fps=3975 q=-1.0 size= 9039872kB time=02:11:25.62 bitrate=9391.1kbits/s speed=66.2x    frame=476447 fps=3984 q=-1.0 size= 9077760kB time=02:12:16.04 bitrate=9370.5kbits/s speed=66.4x    frame=479057 fps=3989 q=-1.0 size= 9113600kB time=02:12:59.51 bitrate=9356.3kbits/s speed=66.4x    frame=481590 fps=3993 q=-1.0 size= 9150720kB time=02:13:41.68 bitrate=9345.0kbits/s speed=66.5x    frame=486052 fps=4014 q=-1.0 size= 9191424kB time=02:14:56.04 bitrate=9300.4kbits/s speed=66.9x    frame=490755 fps=4036 q=-1.0 size= 9228288kB time=02:16:14.39 bitrate=9248.2kbits/s speed=67.2x    frame=495046 fps=4055 q=-1.0 size= 9266688kB time=02:17:25.89 bitrate=9206.1kbits/s speed=67.5x    frame=500608 fps=4083 q=-1.0 size= 9304832kB time=02:18:58.55 bitrate=9141.3kbits/s speed=  68x    frame=503757 fps=4092 q=-1.0 size= 9338624kB time=02:19:51.01 bitrate=9117.1kbits/s speed=68.2x    frame=508225 fps=4112 q=-1.0 size= 9376256kB time=02:21:05.45 bitrate=9073.4kbits/s speed=68.5x    frame=511668 fps=4123 q=-1.0 size= 9411328kB time=02:22:02.83 bitrate=9046.0kbits/s speed=68.7x    frame=514751 fps=4131 q=-1.0 size= 9446144kB time=02:22:54.16 bitrate=9025.1kbits/s speed=68.8x    frame=517942 fps=4140 q=-1.0 size= 9485056kB time=02:23:47.29 bitrate=9006.5kbits/s speed=  69x    frame=521265 fps=4150 q=-1.0 size= 9523712kB time=02:24:42.62 bitrate=8985.6kbits/s speed=69.1x    frame=523872 fps=4154 q=-1.0 size= 9558784kB time=02:25:26.06 bitrate=8973.7kbits/s speed=69.2x    frame=526890 fps=4162 q=-1.0 size= 9598464kB time=02:26:16.34 bitrate=8959.4kbits/s speed=69.3x    frame=529911 fps=4169 q=-1.0 size= 9636864kB time=02:27:06.64 bitrate=8944.0kbits/s speed=69.4x    frame=531709 fps=4167 q=-1.0 size= 9671936kB time=02:27:36.61 bitrate=8946.1kbits/s speed=69.4x    frame=533789 fps=4167 q=-1.0 size= 9711616kB time=02:28:11.27 bitrate=8947.8kbits/s speed=69.4x    frame=535981 fps=4168 q=-1.0 size= 9752320kB time=02:28:47.74 bitrate=8948.6kbits/s speed=69.4x    frame=538422 fps=4171 q=-1.0 size= 9786112kB time=02:29:28.40 bitrate=8938.9kbits/s speed=69.5x    frame=540256 fps=4169 q=-1.0 size= 9824000kB time=02:29:58.97 bitrate=8943.0kbits/s speed=69.4x    frame=542509 fps=4170 q=-1.0 size= 9867520kB time=02:30:36.49 bitrate=8945.4kbits/s speed=69.5x    frame=544869 fps=4172 q=-1.0 size= 9912832kB time=02:31:15.83 bitrate=8947.5kbits/s speed=69.5x    frame=546971 fps=4172 q=-1.0 size= 9955072kB time=02:31:50.85 bitrate=8951.1kbits/s speed=69.5x    frame=549788 fps=4178 q=-1.0 size= 9997056kB time=02:32:37.77 bitrate=8942.8kbits/s speed=69.6x    frame=552011 fps=4179 q=-1.0 size=10037504kB time=02:33:14.82 bitrate=8942.8kbits/s speed=69.6x    frame=554147 fps=4179 q=-1.0 size=10077184kB time=02:33:50.36 bitrate=8943.6kbits/s speed=69.6x    frame=556138 fps=4178 q=-1.0 size=10118400kB time=02:34:23.57 bitrate=8947.9kbits/s speed=69.6x    frame=557929 fps=4176 q=-1.0 size=10152704kB time=02:34:53.38 bitrate=8949.5kbits/s speed=69.6x    frame=560584 fps=4180 q=-1.0 size=10189824kB time=02:35:37.61 bitrate=8939.7kbits/s speed=69.6x    frame=562428 fps=4178 q=-1.0 size=10228224kB time=02:36:08.37 bitrate=8943.9kbits/s speed=69.6x    frame=564977 fps=4182 q=-1.0 size=10265600kB time=02:36:50.81 bitrate=8936.1kbits/s speed=69.7x    frame=567556 fps=4185 q=-1.0 size=10304512kB time=02:37:33.78 bitrate=8929.2kbits/s speed=69.7x    frame=570947 fps=4195 q=-1.0 size=10343168kB time=02:38:30.28 bitrate=8909.4kbits/s speed=69.9x    frame=574815 fps=4208 q=-1.0 size=10380032kB time=02:39:34.71 bitrate=8881.0kbits/s speed=70.1x    frame=577421 fps=4211 q=-1.0 size=10418944kB time=02:40:18.15 bitrate=8874.1kbits/s speed=70.1x    frame=579333 fps=4210 q=-1.0 size=10456832kB time=02:40:50.01 bitrate=8876.9kbits/s speed=70.1x    frame=581345 fps=4209 q=-1.0 size=10492928kB time=02:41:23.53 bitrate=8876.7kbits/s speed=70.1x    frame=584216 fps=4215 q=-1.0 size=10530560kB time=02:42:11.36 bitrate=8864.8kbits/s speed=70.2x    frame=586182 fps=4214 q=-1.0 size=10568192kB time=02:42:44.11 bitrate=8866.6kbits/s speed=70.2x    frame=588662 fps=4216 q=-1.0 size=10602752kB time=02:43:25.41 bitrate=8858.1kbits/s speed=70.2x    frame=590417 fps=4214 q=-1.0 size=10639104kB time=02:43:54.67 bitrate=8862.1kbits/s speed=70.2x    frame=592214 fps=4212 q=-1.0 size=10676480kB time=02:44:24.61 bitrate=8866.2kbits/s speed=70.2x    frame=594964 fps=4216 q=-1.0 size=10713600kB time=02:45:10.43 bitrate=8855.9kbits/s speed=70.2x    frame=597769 fps=4221 q=-1.0 size=10750464kB time=02:45:57.16 bitrate=8844.7kbits/s speed=70.3x    frame=599835 fps=4221 q=-1.0 size=10793472kB time=02:46:31.57 bitrate=8849.5kbits/s speed=70.3x    frame=602449 fps=4224 q=-1.0 size=10833664kB time=02:47:15.11 bitrate=8843.9kbits/s speed=70.4x    frame=604787 fps=4226 q=-1.0 size=10881536kB time=02:47:54.07 bitrate=8848.6kbits/s speed=70.4x    frame=606790 fps=4225 q=-1.0 size=10921984kB time=02:48:27.42 bitrate=8852.2kbits/s speed=70.4x    frame=608861 fps=4225 q=-1.0 size=10963712kB time=02:49:01.93 bitrate=8855.8kbits/s speed=70.4x    frame=610819 fps=4224 q=-1.0 size=11003648kB time=02:49:34.51 bitrate=8859.6kbits/s speed=70.4x    frame=612971 fps=4224 q=-1.0 size=11041280kB time=02:50:10.39 bitrate=8858.6kbits/s speed=70.4x    frame=615232 fps=4225 q=-1.0 size=11077376kB time=02:50:48.03 bitrate=8855.0kbits/s speed=70.4x    frame=617311 fps=4225 q=-1.0 size=11118336kB time=02:51:22.67 bitrate=8857.8kbits/s speed=70.4x    frame=619337 fps=4224 q=-1.0 size=11157248kB time=02:51:56.42 bitrate=8859.7kbits/s speed=70.4x    frame=621486 fps=4224 q=-1.0 size=11198208kB time=02:52:32.23 bitrate=8861.4kbits/s speed=70.4x    frame=623648 fps=4225 q=-1.0 size=11238656kB time=02:53:08.23 bitrate=8862.6kbits/s speed=70.4x    frame=625585 fps=4223 q=-1.0 size=11276544kB time=02:53:40.49 bitrate=8865.0kbits/s speed=70.4x    frame=628164 fps=4227 q=-1.0 size=11315456kB time=02:54:23.45 bitrate=8859.0kbits/s speed=70.4x    frame=630043 fps=4225 q=-1.0 size=11353600kB time=02:54:54.76 bitrate=8862.4kbits/s speed=70.4x    frame=631849 fps=4223 q=-1.0 size=11389696kB time=02:55:24.83 bitrate=8865.2kbits/s speed=70.3x    frame=634314 fps=4225 q=-1.0 size=11425536kB time=02:56:05.92 bitrate=8858.5kbits/s speed=70.4x    frame=636398 fps=4225 q=-1.0 size=11462400kB time=02:56:40.61 bitrate=8858.0kbits/s speed=70.4x    frame=638620 fps=4226 q=-1.0 size=11500800kB time=02:57:17.65 bitrate=8856.7kbits/s speed=70.4x    frame=640820 fps=4226 q=-1.0 size=11540224kB time=02:57:54.29 bitrate=8856.6kbits/s speed=70.4x    frame=643036 fps=4227 q=-1.0 size=11580160kB time=02:58:31.20 bitrate=8856.6kbits/s speed=70.4x    frame=645094 fps=4227 q=-1.0 size=11616000kB time=02:59:05.49 bitrate=8855.6kbits/s speed=70.4x    frame=646943 fps=4225 q=-1.0 size=11654400kB time=02:59:36.29 bitrate=8859.5kbits/s speed=70.4x    frame=649558 fps=4228 q=-1.0 size=11691264kB time=03:00:19.84 bitrate=8851.8kbits/s speed=70.4x    frame=652095 fps=4231 q=-1.0 size=11727360kB time=03:01:02.10 bitrate=8844.6kbits/s speed=70.5x    frame=654381 fps=4232 q=-1.0 size=11766784kB time=03:01:40.19 bitrate=8843.3kbits/s speed=70.5x    frame=656451 fps=4232 q=-1.0 size=11804672kB time=03:02:14.67 bitrate=8843.8kbits/s speed=70.5x    frame=659115 fps=4235 q=-1.0 size=11840512kB time=03:02:59.07 bitrate=8834.8kbits/s speed=70.5x    frame=661125 fps=4234 q=-1.0 size=11880192kB time=03:03:32.54 bitrate=8837.4kbits/s speed=70.5x    frame=663118 fps=4234 q=-1.0 size=11918336kB time=03:04:05.73 bitrate=8839.2kbits/s speed=70.5x    frame=665281 fps=4234 q=-1.0 size=11958016kB time=03:04:41.75 bitrate=8839.8kbits/s speed=70.5x    frame=667428 fps=4234 q=-1.0 size=11997184kB time=03:05:17.50 bitrate=8840.2kbits/s speed=70.5x    frame=669517 fps=4234 q=-1.0 size=12037888kB time=03:05:52.28 bitrate=8842.5kbits/s speed=70.5x    frame=671391 fps=4232 q=-1.0 size=12073216kB time=03:06:23.51 bitrate=8843.7kbits/s speed=70.5x    frame=673475 fps=4232 q=-1.0 size=12111616kB time=03:06:58.21 bitrate=8844.4kbits/s speed=70.5x    frame=675514 fps=4232 q=-1.0 size=12151296kB time=03:07:32.18 bitrate=8846.6kbits/s speed=70.5x    frame=677987 fps=4234 q=-1.0 size=12185600kB time=03:08:13.36 bitrate=8839.2kbits/s speed=70.5x    frame=679854 fps=4232 q=-1.0 size=12223232kB time=03:08:44.48 bitrate=8842.1kbits/s speed=70.5x    frame=681889 fps=4232 q=-1.0 size=12261888kB time=03:09:18.39 bitrate=8843.6kbits/s speed=70.5x    frame=683894 fps=4231 q=-1.0 size=12298496kB time=03:09:51.79 bitrate=8844.0kbits/s speed=70.5x    frame=686601 fps=4235 q=-1.0 size=12340992kB time=03:10:36.88 bitrate=8839.6kbits/s speed=70.5x    frame=688942 fps=4236 q=-1.0 size=12387328kB time=03:11:15.91 bitrate=8842.6kbits/s speed=70.6x    frame=690993 fps=4236 q=-1.0 size=12427008kB time=03:11:50.06 bitrate=8844.6kbits/s speed=70.6x    frame=693664 fps=4239 q=-1.0 size=12468480kB time=03:12:34.58 bitrate=8839.9kbits/s speed=70.6x    frame=695800 fps=4239 q=-1.0 size=12506880kB time=03:13:10.17 bitrate=8839.9kbits/s speed=70.6x    frame=698411 fps=4242 q=-1.0 size=12543232kB time=03:13:53.67 bitrate=8832.5kbits/s speed=70.7x    frame=701074 fps=4245 q=-1.0 size=12580864kB time=03:14:38.03 bitrate=8825.3kbits/s speed=70.7x    frame=703695 fps=4248 q=-1.0 size=12620800kB time=03:15:21.71 bitrate=8820.3kbits/s speed=70.8x    frame=705934 fps=4249 q=-1.0 size=12660992kB time=03:15:59.01 bitrate=8820.4kbits/s speed=70.8x    frame=708269 fps=4250 q=-1.0 size=12699904kB time=03:16:37.92 bitrate=8818.3kbits/s speed=70.8x    frame=711740 fps=4258 q=-1.0 size=12738304kB time=03:17:35.75 bitrate=8801.8kbits/s speed=70.9x    frame=714143 fps=4260 q=-1.0 size=12775936kB time=03:18:15.75 bitrate=8798.1kbits/s speed=  71x    frame=716557 fps=4262 q=-1.0 size=12811008kB time=03:18:55.97 bitrate=8792.6kbits/s speed=  71x    frame=718958 fps=4263 q=-1.0 size=12848896kB time=03:19:35.98 bitrate=8789.1kbits/s speed=  71x    frame=721317 fps=4265 q=-1.0 size=12889856kB time=03:20:15.27 bitrate=8788.3kbits/s speed=  71x    frame=723698 fps=4266 q=-1.0 size=12929792kB time=03:20:54.92 bitrate=8786.5kbits/s speed=71.1x    frame=726214 fps=4268 q=-1.0 size=12971776kB time=03:21:36.86 bitrate=8784.5kbits/s speed=71.1x    frame=728763 fps=4271 q=-1.0 size=13010432kB time=03:22:19.32 bitrate=8779.9kbits/s speed=71.1x    frame=731169 fps=4272 q=-1.0 size=13045760kB time=03:22:59.40 bitrate=8774.7kbits/s speed=71.2x    frame=733549 fps=4274 q=-1.0 size=13085184kB time=03:23:39.03 bitrate=8772.7kbits/s speed=71.2x    frame=735854 fps=4275 q=-1.0 size=13127168kB time=03:24:17.44 bitrate=8773.3kbits/s speed=71.2x    frame=737999 fps=4275 q=-1.0 size=13163008kB time=03:24:53.20 bitrate=8771.6kbits/s speed=71.2x    frame=740431 fps=4276 q=-1.0 size=13204224kB time=03:25:33.71 bitrate=8770.2kbits/s speed=71.2x    frame=743546 fps=4282 q=-1.0 size=13246208kB time=03:26:25.59 bitrate=8761.2kbits/s speed=71.3x    frame=746112 fps=4284 q=-1.0 size=13281024kB time=03:27:08.36 bitrate=8754.0kbits/s speed=71.4x    frame=748746 fps=4287 q=-1.0 size=13323264kB time=03:27:52.23 bitrate=8751.0kbits/s speed=71.4x    frame=750973 fps=4288 q=-1.0 size=13364224kB time=03:28:29.34 bitrate=8751.8kbits/s speed=71.4x    frame=753051 fps=4287 q=-1.0 size=13399808kB time=03:29:03.96 bitrate=8750.9kbits/s speed=71.4x    frame=756131 fps=4293 q=-1.0 size=13438464kB time=03:29:55.24 bitrate=8740.4kbits/s speed=71.5x    frame=759186 fps=4298 q=-1.0 size=13474304kB time=03:30:46.14 bitrate=8728.5kbits/s speed=71.6x    frame=761071 fps=4296 q=-1.0 size=13508608kB time=03:31:17.56 bitrate=8729.0kbits/s speed=71.6x    frame=763151 fps=4296 q=-1.0 size=13548800kB time=03:31:52.22 bitrate=8731.1kbits/s speed=71.6x    frame=764826 fps=4293 q=-1.0 size=13583360kB time=03:32:20.10 bitrate=8734.2kbits/s speed=71.5x    frame=767218 fps=4295 q=-1.0 size=13620736kB time=03:32:59.95 bitrate=8730.9kbits/s speed=71.5x    frame=769688 fps=4296 q=-1.0 size=13660416kB time=03:33:41.14 bitrate=8728.2kbits/s speed=71.6x    frame=772506 fps=4300 q=-1.0 size=13698560kB time=03:34:28.05 bitrate=8720.7kbits/s speed=71.6x    frame=775287 fps=4304 q=-1.0 size=13736960kB time=03:35:14.40 bitrate=8713.8kbits/s speed=71.7x    frame=777965 fps=4307 q=-1.0 size=13774336kB time=03:35:59.00 bitrate=8707.4kbits/s speed=71.7x    frame=780365 fps=4308 q=-1.0 size=13811968kB time=03:36:39.00 bitrate=8704.3kbits/s speed=71.8x    frame=782639 fps=4309 q=-1.0 size=13849856kB time=03:37:16.91 bitrate=8702.8kbits/s speed=71.8x    frame=785087 fps=4310 q=-1.0 size=13891072kB time=03:37:57.65 bitrate=8701.5kbits/s speed=71.8x    frame=787373 fps=4311 q=-1.0 size=13927680kB time=03:38:35.73 bitrate=8699.1kbits/s speed=71.8x    frame=789881 fps=4313 q=-1.0 size=13966592kB time=03:39:17.50 bitrate=8695.7kbits/s speed=71.8x    frame=792072 fps=4313 q=-1.0 size=14004480kB time=03:39:53.99 bitrate=8695.2kbits/s speed=71.8x    frame=794839 fps=4316 q=-1.0 size=14040832kB time=03:40:40.12 bitrate=8687.4kbits/s speed=71.9x    frame=796714 fps=4315 q=-1.0 size=14074624kB time=03:41:11.38 bitrate=8687.8kbits/s speed=71.9x    frame=798961 fps=4315 q=-1.0 size=14114048kB time=03:41:48.79 bitrate=8687.7kbits/s speed=71.9x    frame=801101 fps=4315 q=-1.0 size=14151936kB time=03:42:24.44 bitrate=8687.7kbits/s speed=71.9x    frame=803098 fps=4314 q=-1.0 size=14188544kB time=03:42:57.71 bitrate=8688.5kbits/s speed=71.9x    frame=805281 fps=4314 q=-1.0 size=14228224kB time=03:43:34.11 bitrate=8689.2kbits/s speed=71.9x    frame=807133 fps=4313 q=-1.0 size=14265088kB time=03:44:04.96 bitrate=8691.7kbits/s speed=71.8x    frame=811058 fps=4322 q=-1.0 size=14301696kB time=03:45:10.35 bitrate=8671.8kbits/s speed=  72x    frame=812760 fps=4320 q=-1.0 size=14335744kB time=03:45:38.70 bitrate=8674.3kbits/s speed=  72x    frame=814748 fps=4319 q=-1.0 size=14376192kB time=03:46:11.82 bitrate=8677.5kbits/s speed=71.9x    frame=816699 fps=4318 q=-1.0 size=14410496kB time=03:46:44.32 bitrate=8677.4kbits/s speed=71.9x    frame=818568 fps=4316 q=-1.0 size=14449152kB time=03:47:15.44 bitrate=8680.9kbits/s speed=71.9x    frame=820427 fps=4315 q=-1.0 size=14485504kB time=03:47:46.44 bitrate=8683.0kbits/s speed=71.9x    frame=822226 fps=4313 q=-1.0 size=14521088kB time=03:48:16.38 bitrate=8685.3kbits/s speed=71.8x    frame=824224 fps=4312 q=-1.0 size=14560512kB time=03:48:49.68 bitrate=8687.7kbits/s speed=71.8x    frame=826177 fps=4311 q=-1.0 size=14598144kB time=03:49:22.21 bitrate=8689.6kbits/s speed=71.8x    frame=828017 fps=4309 q=-1.0 size=14634240kB time=03:49:52.89 bitrate=8691.7kbits/s speed=71.8x    frame=829998 fps=4308 q=-1.0 size=14673920kB time=03:50:25.90 bitrate=8694.5kbits/s speed=71.8x    frame=831917 fps=4307 q=-1.0 size=14711552kB time=03:50:57.84 bitrate=8696.7kbits/s speed=71.7x    frame=834999 fps=4312 q=-1.0 size=14749952kB time=03:51:49.20 bitrate=8687.2kbits/s speed=71.8x    frame=837197 fps=4312 q=-1.0 size=14790400kB time=03:52:25.76 bitrate=8688.2kbits/s speed=71.8x    frame=839241 fps=4311 q=-1.0 size=14826240kB time=03:52:59.82 bitrate=8688.0kbits/s speed=71.8x    frame=841434 fps=4312 q=-1.0 size=14864384kB time=03:53:36.36 bitrate=8687.6kbits/s speed=71.8x    frame=844160 fps=4315 q=-1.0 size=14903296kB time=03:54:21.79 bitrate=8682.2kbits/s speed=71.9x    frame=846139 fps=4314 q=-1.0 size=14941696kB time=03:54:54.74 bitrate=8684.3kbits/s speed=71.9x    frame=848435 fps=4314 q=-1.0 size=14979840kB time=03:55:33.00 bitrate=8682.9kbits/s speed=71.9x    frame=850323 fps=4313 q=-1.0 size=15018496kB time=03:56:04.46 bitrate=8685.9kbits/s speed=71.8x    frame=852585 fps=4313 q=-1.0 size=15055360kB time=03:56:42.12 bitrate=8684.2kbits/s speed=71.9x    frame=855334 fps=4316 q=-1.0 size=15101440kB time=03:57:27.95 bitrate=8682.7kbits/s speed=71.9x    frame=861432 fps=4336 q=-1.0 size=15144448kB time=03:59:09.56 bitrate=8645.8kbits/s speed=72.2x    frame=865034 fps=4343 q=-1.0 size=15181568kB time=04:00:09.56 bitrate=8630.9kbits/s speed=72.4x    frame=866925 fps=4342 q=-1.0 size=15220224kB time=04:00:41.04 bitrate=8634.0kbits/s speed=72.3x    frame=868860 fps=4341 q=-1.0 size=15257600kB time=04:01:13.31 bitrate=8635.9kbits/s speed=72.3x    frame=871114 fps=4341 q=-1.0 size=15295744kB time=04:01:50.85 bitrate=8635.1kbits/s speed=72.3x    frame=873540 fps=4343 q=-1.0 size=15334400kB time=04:02:31.24 bitrate=8632.9kbits/s speed=72.3x    frame=876100 fps=4344 q=-1.0 size=15373056kB time=04:03:13.91 bitrate=8629.4kbits/s speed=72.4x    frame=878392 fps=4345 q=-1.0 size=15410688kB time=04:03:52.10 bitrate=8627.9kbits/s speed=72.4x    frame=880655 fps=4346 q=-1.0 size=15451904kB time=04:04:29.78 bitrate=8628.8kbits/s speed=72.4x    frame=883700 fps=4350 q=-1.0 size=15489024kB time=04:05:20.54 bitrate=8619.7kbits/s speed=72.5x    frame=886533 fps=4353 q=-1.0 size=15529472kB time=04:06:07.73 bitrate=8614.6kbits/s speed=72.5x    frame=889003 fps=4354 q=-1.0 size=15571968kB time=04:06:48.88 bitrate=8614.1kbits/s speed=72.5x    frame=892004 fps=4358 q=-1.0 size=15613184kB time=04:07:38.88 bitrate=8607.9kbits/s speed=72.6x    frame=894557 fps=4360 q=-1.0 size=15652352kB time=04:08:21.43 bitrate=8604.8kbits/s speed=72.6x    frame=897716 fps=4365 q=-1.0 size=15699712kB time=04:09:14.07 bitrate=8600.5kbits/s speed=72.7x    frame=900452 fps=4368 q=-1.0 size=15741184kB time=04:09:59.62 bitrate=8597.0kbits/s speed=72.8x    frame=903092 fps=4370 q=-1.0 size=15775232kB time=04:10:43.61 bitrate=8590.4kbits/s speed=72.8x    frame=905906 fps=4373 q=-1.0 size=15812608kB time=04:11:30.48 bitrate=8584.0kbits/s speed=72.8x    frame=908115 fps=4373 q=-1.0 size=15851520kB time=04:12:07.29 bitrate=8584.2kbits/s speed=72.8x    frame=910459 fps=4374 q=-1.0 size=15889920kB time=04:12:46.32 bitrate=8582.8kbits/s speed=72.9x    frame=913695 fps=4379 q=-1.0 size=15927296kB time=04:13:40.22 bitrate=8572.6kbits/s speed=72.9x    frame=915818 fps=4379 q=-1.0 size=15966464kB time=04:14:15.59 bitrate=8573.7kbits/s speed=72.9x    frame=918564 fps=4381 q=-1.0 size=16000256kB time=04:15:01.31 bitrate=8566.2kbits/s speed=  73x    frame=920594 fps=4380 q=-1.0 size=16036864kB time=04:15:35.14 bitrate=8566.9kbits/s speed=  73x    frame=922662 fps=4380 q=-1.0 size=16073472kB time=04:16:09.60 bitrate=8567.2kbits/s speed=  73x    frame=924987 fps=4380 q=-1.0 size=16110592kB time=04:16:48.32 bitrate=8565.4kbits/s speed=  73x    frame=927460 fps=4382 q=-1.0 size=16150272kB time=04:17:29.51 bitrate=8563.6kbits/s speed=  73x    frame=931028 fps=4388 q=-1.0 size=16186624kB time=04:18:28.99 bitrate=8549.9kbits/s speed=73.1x    frame=933629 fps=4390 q=-1.0 size=16221440kB time=04:19:12.34 bitrate=8544.4kbits/s speed=73.1x    frame=935848 fps=4390 q=-1.0 size=16259328kB time=04:19:49.28 bitrate=8544.1kbits/s speed=73.1x    frame=938589 fps=4393 q=-1.0 size=16298496kB time=04:20:34.98 bitrate=8539.6kbits/s speed=73.2x    frame=940809 fps=4393 q=-1.0 size=16335104kB time=04:21:11.96 bitrate=8538.6kbits/s speed=73.2x    frame=943307 fps=4394 q=-1.0 size=16374016kB time=04:21:53.59 bitrate=8536.3kbits/s speed=73.2x    frame=946504 fps=4399 q=-1.0 size=16413696kB time=04:22:46.82 bitrate=8528.1kbits/s speed=73.3x    frame=948552 fps=4398 q=-1.0 size=16448512kB time=04:23:20.94 bitrate=8527.7kbits/s speed=73.3x    frame=950756 fps=4398 q=-1.0 size=16487168kB time=04:23:57.66 bitrate=8528.0kbits/s speed=73.3x    frame=952941 fps=4398 q=-1.0 size=16526592kB time=04:24:34.03 bitrate=8528.8kbits/s speed=73.3x    frame=955095 fps=4398 q=-1.0 size=16567808kB time=04:25:09.94 bitrate=8530.7kbits/s speed=73.3x    frame=957334 fps=4398 q=-1.0 size=16609280kB time=04:25:47.20 bitrate=8532.1kbits/s speed=73.3x    frame=959757 fps=4399 q=-1.0 size=16650496kB time=04:26:27.58 bitrate=8531.7kbits/s speed=73.3x    frame=962615 fps=4402 q=-1.0 size=16685312kB time=04:27:15.23 bitrate=8524.1kbits/s speed=73.3x    frame=964767 fps=4402 q=-1.0 size=16724480kB time=04:27:51.06 bitrate=8525.1kbits/s speed=73.3x    frame=967252 fps=4403 q=-1.0 size=16765696kB time=04:28:32.49 bitrate=8524.1kbits/s speed=73.3x    frame=969613 fps=4404 q=-1.0 size=16806400kB time=04:29:11.79 bitrate=8524.0kbits/s speed=73.4x    frame=971649 fps=4403 q=-1.0 size=16846592kB time=04:29:45.74 bitrate=8526.5kbits/s speed=73.3x    frame=973837 fps=4403 q=-1.0 size=16886784kB time=04:30:22.19 bitrate=8527.6kbits/s speed=73.3x    frame=975679 fps=4401 q=-1.0 size=16919552kB time=04:30:52.87 bitrate=8528.0kbits/s speed=73.3x    frame=977674 fps=4401 q=-1.0 size=16959232kB time=04:31:26.14 bitrate=8530.6kbits/s speed=73.3x    frame=979666 fps=4400 q=-1.0 size=16998656kB time=04:31:59.31 bitrate=8533.0kbits/s speed=73.3x    frame=982276 fps=4401 q=-1.0 size=17036800kB time=04:32:42.82 bitrate=8529.4kbits/s speed=73.3x    frame=984634 fps=4402 q=-1.0 size=17076224kB time=04:33:22.09 bitrate=8528.7kbits/s speed=73.3x    frame=986884 fps=4402 q=-1.0 size=17115136kB time=04:33:59.60 bitrate=8528.6kbits/s speed=73.3x    frame=989449 fps=4404 q=-1.0 size=17150720kB time=04:34:42.35 bitrate=8524.2kbits/s speed=73.4x    frame=992051 fps=4406 q=-1.0 size=17190400kB time=04:35:25.68 bitrate=8521.5kbits/s speed=73.4x    frame=994518 fps=4407 q=-1.0 size=17228544kB time=04:36:06.79 bitrate=8519.2kbits/s speed=73.4x    frame=997128 fps=4409 q=-1.0 size=17267200kB time=04:36:50.29 bitrate=8516.0kbits/s speed=73.4x    frame=1000127 fps=4412 q=-1.0 size=17304320kB time=04:37:40.22 bitrate=8508.7kbits/s speed=73.5x    frame=1002015 fps=4411 q=-1.0 size=17342464kB time=04:38:11.67 bitrate=8511.4kbits/s speed=73.5x    frame=1004000 fps=4410 q=-1.0 size=17383680kB time=04:38:44.77 bitrate=8514.7kbits/s speed=73.5x    frame=1006051 fps=4409 q=-1.0 size=17425408kB time=04:39:18.92 bitrate=8517.8kbits/s speed=73.4x    frame=1008783 fps=4411 q=-1.0 size=17462016kB time=04:40:04.45 bitrate=8512.6kbits/s speed=73.5x    frame=1011210 fps=4412 q=-1.0 size=17501696kB time=04:40:44.88 bitrate=8511.4kbits/s speed=73.5x    frame=1014180 fps=4416 q=-1.0 size=17539584kB time=04:41:34.35 bitrate=8504.9kbits/s speed=73.6x    frame=1017876 fps=4422 q=-1.0 size=17577728kB time=04:42:35.95 bitrate=8492.4kbits/s speed=73.7x    frame=1020319 fps=4423 q=-1.0 size=17618688kB time=04:43:16.61 bitrate=8491.8kbits/s speed=73.7x    frame=1023146 fps=4426 q=-1.0 size=17659392kB time=04:44:03.74 bitrate=8487.9kbits/s speed=73.7x    frame=1025421 fps=4426 q=-1.0 size=17698304kB time=04:44:41.62 bitrate=8487.7kbits/s speed=73.7x    frame=1028220 fps=4429 q=-1.0 size=17743872kB time=04:45:28.27 bitrate=8486.4kbits/s speed=73.8x    frame=1031255 fps=4432 q=-1.0 size=17781248kB time=04:46:18.82 bitrate=8479.3kbits/s speed=73.8x    frame=1034068 fps=4435 q=-1.0 size=17819392kB time=04:47:05.69 bitrate=8474.3kbits/s speed=73.9x    frame=1036221 fps=4434 q=-1.0 size=17854976kB time=04:47:41.56 bitrate=8473.6kbits/s speed=73.9x    frame=1038467 fps=4434 q=-1.0 size=17894912kB time=04:48:18.95 bitrate=8474.2kbits/s speed=73.9x    frame=1040410 fps=4433 q=-1.0 size=17930496kB time=04:48:51.33 bitrate=8475.2kbits/s speed=73.8x    frame=1044200 fps=4440 q=-1.0 size=17967360kB time=04:49:54.49 bitrate=8461.8kbits/s speed=  74x    frame=1047706 fps=4445 q=-1.0 size=18002944kB time=04:50:52.90 bitrate=8450.2kbits/s speed=74.1x    frame=1050555 fps=4448 q=-1.0 size=18038016kB time=04:51:40.37 bitrate=8443.7kbits/s speed=74.1x    frame=1054262 fps=4454 q=-1.0 size=18076416kB time=04:52:42.12 bitrate=8431.9kbits/s speed=74.2x    frame=1058083 fps=4461 q=-1.0 size=18113280kB time=04:53:45.79 bitrate=8418.6kbits/s speed=74.3x    frame=1061124 fps=4464 q=-1.0 size=18149632kB time=04:54:36.43 bitrate=8411.3kbits/s speed=74.4x    frame=1064335 fps=4468 q=-1.0 size=18187776kB time=04:55:29.96 bitrate=8403.5kbits/s speed=74.4x    frame=1067446 fps=4472 q=-1.0 size=18228224kB time=04:56:21.79 bitrate=8397.7kbits/s speed=74.5x    frame=1070317 fps=4475 q=-1.0 size=18266624kB time=04:57:09.63 bitrate=8392.8kbits/s speed=74.5x    frame=1073411 fps=4478 q=-1.0 size=18306048kB time=04:58:01.18 bitrate=8386.6kbits/s speed=74.6x    frame=1076585 fps=4482 q=-1.0 size=18345472kB time=04:58:54.05 bitrate=8379.9kbits/s speed=74.7x    frame=1079222 fps=4484 q=-1.0 size=18379776kB time=04:59:37.98 bitrate=8375.1kbits/s speed=74.7x    frame=1082034 fps=4486 q=-1.0 size=18419968kB time=05:00:24.84 bitrate=8371.6kbits/s speed=74.7x    frame=1087380 fps=4499 q=-1.0 size=18457856kB time=05:01:53.92 bitrate=8347.5kbits/s speed=74.9x    frame=1089239 fps=4497 q=-1.0 size=18492672kB time=05:02:24.88 bitrate=8349.0kbits/s speed=74.9x    frame=1091524 fps=4498 q=-1.0 size=18532352kB time=05:03:02.91 bitrate=8349.4kbits/s speed=74.9x    frame=1093655 fps=4497 q=-1.0 size=18567168kB time=05:03:38.41 bitrate=8348.8kbits/s speed=74.9x    frame=1096611 fps=4500 q=-1.0 size=18612480kB time=05:04:27.68 bitrate=8346.6kbits/s speed=  75x    frame=1099880 fps=4504 q=-1.0 size=18657536kB time=05:05:22.15 bitrate=8342.0kbits/s speed=  75x    frame=1101965 fps=4503 q=-1.0 size=18696448kB time=05:05:56.87 bitrate=8343.5kbits/s speed=  75x    frame=1104312 fps=4504 q=-1.0 size=18736640kB time=05:06:35.97 bitrate=8343.7kbits/s speed=  75x    frame=1106667 fps=4504 q=-1.0 size=18778112kB time=05:07:15.21 bitrate=8344.4kbits/s speed=  75x    frame=1109402 fps=4506 q=-1.0 size=18817280kB time=05:08:00.74 bitrate=8341.2kbits/s speed=75.1x    frame=1111511 fps=4506 q=-1.0 size=18851840kB time=05:08:35.89 bitrate=8340.6kbits/s speed=75.1x    frame=1113722 fps=4505 q=-1.0 size=18890496kB time=05:09:12.72 bitrate=8341.1kbits/s speed=75.1x    frame=1116671 fps=4508 q=-1.0 size=18925312kB time=05:10:01.86 bitrate=8334.4kbits/s speed=75.1x    frame=1120228 fps=4514 q=-1.0 size=18961408kB time=05:11:01.09 bitrate=8323.8kbits/s speed=75.2x    frame=1123940 fps=4519 q=-1.0 size=18997504kB time=05:12:02.87 bitrate=8312.2kbits/s speed=75.3x    frame=1125824 fps=4518 q=-1.0 size=19034624kB time=05:12:34.26 bitrate=8314.5kbits/s speed=75.3x    frame=1127699 fps=4516 q=-1.0 size=19073536kB time=05:13:05.50 bitrate=8317.6kbits/s speed=75.2x    frame=1129902 fps=4516 q=-1.0 size=19111936kB time=05:13:42.18 bitrate=8318.1kbits/s speed=75.2x    frame=1131725 fps=4514 q=-1.0 size=19149824kB time=05:14:12.53 bitrate=8321.2kbits/s speed=75.2x    frame=1133509 fps=4512 q=-1.0 size=19186944kB time=05:14:42.26 bitrate=8324.2kbits/s speed=75.2x    frame=1135467 fps=4511 q=-1.0 size=19227904kB time=05:15:14.88 bitrate=8327.6kbits/s speed=75.1x    frame=1137266 fps=4509 q=-1.0 size=19265024kB time=05:15:44.83 bitrate=8330.5kbits/s speed=75.1x    frame=1139169 fps=4508 q=-1.0 size=19304448kB time=05:16:16.53 bitrate=8333.6kbits/s speed=75.1x    frame=1141019 fps=4506 q=-1.0 size=19343104kB time=05:16:47.32 bitrate=8336.7kbits/s speed=75.1x    frame=1142858 fps=4505 q=-1.0 size=19380992kB time=05:17:17.96 bitrate=8339.6kbits/s speed=  75x    frame=1144433 fps=4502 q=-1.0 size=19413760kB time=05:17:44.16 bitrate=8342.2kbits/s speed=  75x    frame=1146257 fps=4500 q=-1.0 size=19451904kB time=05:18:14.55 bitrate=8345.3kbits/s speed=  75x    frame=1148040 fps=4499 q=-1.0 size=19488768kB time=05:18:44.26 bitrate=8348.1kbits/s speed=74.9x    frame=1149887 fps=4497 q=-1.0 size=19527168kB time=05:19:15.03 bitrate=8351.2kbits/s speed=74.9x    frame=1152032 fps=4497 q=-1.0 size=19566592kB time=05:19:50.76 bitrate=8352.4kbits/s speed=74.9x    frame=1154531 fps=4498 q=-1.0 size=19610624kB time=05:20:32.40 bitrate=8353.1kbits/s speed=74.9x    frame=1156746 fps=4497 q=-1.0 size=19656448kB time=05:21:09.29 bitrate=8356.6kbits/s speed=74.9x    frame=1158930 fps=4497 q=-1.0 size=19701760kB time=05:21:45.65 bitrate=8360.1kbits/s speed=74.9x    frame=1161066 fps=4497 q=-1.0 size=19746048kB time=05:22:21.22 bitrate=8363.5kbits/s speed=74.9x    frame=1163264 fps=4497 q=-1.0 size=19792128kB time=05:22:57.82 bitrate=8367.1kbits/s speed=74.9x    frame=1165238 fps=4495 q=-1.0 size=19832832kB time=05:23:30.67 bitrate=8370.2kbits/s speed=74.9x    frame=1167023 fps=4494 q=-1.0 size=19869952kB time=05:24:00.43 bitrate=8373.0kbits/s speed=74.9x    frame=1168724 fps=4492 q=-1.0 size=19905536kB time=05:24:28.76 bitrate=8375.8kbits/s speed=74.8x    frame=1170600 fps=4490 q=-1.0 size=19944192kB time=05:24:59.96 bitrate=8378.6kbits/s speed=74.8x    frame=1172347 fps=4488 q=-1.0 size=19980800kB time=05:25:29.07 bitrate=8381.5kbits/s speed=74.8x    frame=1174364 fps=4487 q=-1.0 size=20017408kB time=05:26:02.70 bitrate=8382.4kbits/s speed=74.8x    frame=1176207 fps=4486 q=-1.0 size=20055040kB time=05:26:33.41 bitrate=8385.0kbits/s speed=74.7x    frame=1178477 fps=4486 q=-1.0 size=20093184kB time=05:27:11.18 bitrate=8384.8kbits/s speed=74.7x    frame=1180395 fps=4485 q=-1.0 size=20132608kB time=05:27:43.13 bitrate=8387.6kbits/s speed=74.7x    frame=1182397 fps=4484 q=-1.0 size=20174336kB time=05:28:16.48 bitrate=8390.7kbits/s speed=74.7x    frame=1184264 fps=4482 q=-1.0 size=20213248kB time=05:28:47.56 bitrate=8393.7kbits/s speed=74.7x    frame=1186240 fps=4481 q=-1.0 size=20254208kB time=05:29:20.49 bitrate=8396.7kbits/s speed=74.7x    frame=1188074 fps=4480 q=-1.0 size=20292352kB time=05:29:51.03 bitrate=8399.5kbits/s speed=74.6x    frame=1189842 fps=4478 q=-1.0 size=20329216kB time=05:30:20.44 bitrate=8402.3kbits/s speed=74.6x    frame=1191808 fps=4477 q=-1.0 size=20370176kB time=05:30:53.22 bitrate=8405.3kbits/s speed=74.6x    frame=1193797 fps=4476 q=-1.0 size=20411136kB time=05:31:26.33 bitrate=8408.2kbits/s speed=74.6x    frame=1195523 fps=4474 q=-1.0 size=20446976kB time=05:31:55.06 bitrate=8410.8kbits/s speed=74.5x    frame=1197446 fps=4473 q=-1.0 size=20487168kB time=05:32:27.13 bitrate=8413.8kbits/s speed=74.5x    frame=1199332 fps=4472 q=-1.0 size=20526592kB time=05:32:58.54 bitrate=8416.7kbits/s speed=74.5x    frame=1201253 fps=4470 q=-1.0 size=20566272kB time=05:33:30.54 bitrate=8419.5kbits/s speed=74.5x    frame=1203171 fps=4469 q=-1.0 size=20606464kB time=05:34:02.46 bitrate=8422.5kbits/s speed=74.5x    frame=1204913 fps=4467 q=-1.0 size=20642304kB time=05:34:31.47 bitrate=8425.0kbits/s speed=74.4x    frame=1206586 fps=4465 q=-1.0 size=20677120kB time=05:34:59.35 bitrate=8427.5kbits/s speed=74.4x    frame=1208225 fps=4463 q=-1.0 size=20711168kB time=05:35:26.66 bitrate=8429.9kbits/s speed=74.3x    frame=1210273 fps=4463 q=-1.0 size=20747776kB time=05:36:00.77 bitrate=8430.5kbits/s speed=74.3x    frame=1212147 fps=4461 q=-1.0 size=20786432kB time=05:36:31.98 bitrate=8433.2kbits/s speed=74.3x    frame=1213907 fps=4459 q=-1.0 size=20822784kB time=05:37:01.31 bitrate=8435.7kbits/s speed=74.3x    frame=1216146 fps=4459 q=-1.0 size=20858624kB time=05:37:38.61 bitrate=8434.6kbits/s speed=74.3x    frame=1217989 fps=4458 q=-1.0 size=20896768kB time=05:38:09.31 bitrate=8437.3kbits/s speed=74.3x    frame=1219876 fps=4457 q=-1.0 size=20936192kB time=05:38:40.74 bitrate=8440.1kbits/s speed=74.2x    frame=1221656 fps=4455 q=-1.0 size=20973056kB time=05:39:10.39 bitrate=8442.7kbits/s speed=74.2x    frame=1223602 fps=4454 q=-1.0 size=21013504kB time=05:39:42.77 bitrate=8445.5kbits/s speed=74.2x    frame=1225547 fps=4453 q=-1.0 size=21053952kB time=05:40:15.19 bitrate=8448.3kbits/s speed=74.2x    frame=1227425 fps=4452 q=-1.0 size=21092864kB time=05:40:46.46 bitrate=8451.0kbits/s speed=74.2x    frame=1229285 fps=4450 q=-1.0 size=21131520kB time=05:41:17.42 bitrate=8453.7kbits/s speed=74.1x    frame=1231226 fps=4449 q=-1.0 size=21171968kB time=05:41:49.71 bitrate=8456.5kbits/s speed=74.1x    frame=1232943 fps=4448 q=-1.0 size=21207552kB time=05:42:18.35 bitrate=8458.9kbits/s speed=74.1x    frame=1234827 fps=4446 q=-1.0 size=21246720kB time=05:42:49.75 bitrate=8461.6kbits/s speed=74.1x    frame=1236722 fps=4445 q=-1.0 size=21286144kB time=05:43:21.28 bitrate=8464.3kbits/s speed=  74x    frame=1238629 fps=4444 q=-1.0 size=21325824kB time=05:43:53.08 bitrate=8467.0kbits/s speed=  74x    frame=1240568 fps=4443 q=-1.0 size=21366016kB time=05:44:25.38 bitrate=8469.7kbits/s speed=  74x    frame=1242490 fps=4442 q=-1.0 size=21405696kB time=05:44:57.34 bitrate=8472.4kbits/s speed=  74x    frame=1244256 fps=4440 q=-1.0 size=21442560kB time=05:45:26.77 bitrate=8474.9kbits/s speed=  74x    frame=1246180 fps=4439 q=-1.0 size=21481216kB time=05:45:58.80 bitrate=8477.1kbits/s speed=73.9x    frame=1248270 fps=4439 q=-1.0 size=21520128kB time=05:46:33.62 bitrate=8478.2kbits/s speed=73.9x    frame=1250234 fps=4438 q=-1.0 size=21554176kB time=05:47:06.35 bitrate=8478.3kbits/s speed=73.9x    frame=1252056 fps=4436 q=-1.0 size=21592064kB time=05:47:36.71 bitrate=8480.8kbits/s speed=73.9x    frame=1253894 fps=4435 q=-1.0 size=21630208kB time=05:48:07.34 bitrate=8483.4kbits/s speed=73.9x    frame=1255551 fps=4433 q=-1.0 size=21664512kB time=05:48:34.93 bitrate=8485.6kbits/s speed=73.8x    frame=1257624 fps=4433 q=-1.0 size=21703680kB time=05:49:09.45 bitrate=8486.9kbits/s speed=73.8x    frame=1260049 fps=4433 q=-1.0 size=21744640kB time=05:49:49.80 bitrate=8486.6kbits/s speed=73.8x    frame=1261752 fps=4431 q=-1.0 size=21779200kB time=05:50:18.20 bitrate=8488.6kbits/s speed=73.8x    frame=1263615 fps=4430 q=-1.0 size=21818112kB time=05:50:49.19 bitrate=8491.2kbits/s speed=73.8x    frame=1265510 fps=4429 q=-1.0 size=21857536kB time=05:51:20.79 bitrate=8493.8kbits/s speed=73.8x    frame=1267155 fps=4427 q=-1.0 size=21891840kB time=05:51:48.20 bitrate=8496.1kbits/s speed=73.7x    frame=1269293 fps=4427 q=-1.0 size=21936128kB time=05:52:23.79 bitrate=8499.0kbits/s speed=73.7x    frame=1271226 fps=4426 q=-1.0 size=21976576kB time=05:52:56.01 bitrate=8501.7kbits/s speed=73.7x    frame=1272883 fps=4424 q=-1.0 size=22010624kB time=05:53:23.62 bitrate=8503.8kbits/s speed=73.7x    frame=1274737 fps=4423 q=-1.0 size=22049024kB time=05:53:54.47 bitrate=8506.2kbits/s speed=73.7x    frame=1276675 fps=4422 q=-1.0 size=22089472kB time=05:54:26.76 bitrate=8508.9kbits/s speed=73.7x    frame=1278298 fps=4420 q=-1.0 size=22123264kB time=05:54:53.78 bitrate=8511.1kbits/s speed=73.6x    frame=1280294 fps=4419 q=-1.0 size=22164736kB time=05:55:27.06 bitrate=8513.8kbits/s speed=73.6x    frame=1282413 fps=4419 q=-1.0 size=22205184kB time=05:56:02.34 bitrate=8515.2kbits/s speed=73.6x    frame=1284756 fps=4419 q=-1.0 size=22246912kB time=05:56:41.39 bitrate=8515.6kbits/s speed=73.6x    frame=1286829 fps=4419 q=-1.0 size=22289920kB time=05:57:15.88 bitrate=8518.4kbits/s speed=73.6x    frame=1288680 fps=4417 q=-1.0 size=22328320kB time=05:57:46.71 bitrate=8520.8kbits/s speed=73.6x    frame=1290647 fps=4417 q=-1.0 size=22369280kB time=05:58:19.49 bitrate=8523.4kbits/s speed=73.6x    frame=1292640 fps=4416 q=-1.0 size=22410752kB time=05:58:52.70 bitrate=8526.0kbits/s speed=73.6x    frame=1294550 fps=4415 q=-1.0 size=22450432kB time=05:59:24.53 bitrate=8528.5kbits/s speed=73.5x    frame=1296435 fps=4414 q=-1.0 size=22489600kB time=05:59:55.91 bitrate=8531.0kbits/s speed=73.5x    frame=1298419 fps=4413 q=-1.0 size=22531072kB time=06:00:28.96 bitrate=8533.7kbits/s speed=73.5x    frame=1300280 fps=4412 q=-1.0 size=22569472kB time=06:00:59.96 bitrate=8536.0kbits/s speed=73.5x    frame=1302007 fps=4410 q=-1.0 size=22605312kB time=06:01:28.70 bitrate=8538.2kbits/s speed=73.5x    frame=1303930 fps=4409 q=-1.0 size=22645248kB time=06:02:00.73 bitrate=8540.7kbits/s speed=73.4x    frame=1305806 fps=4408 q=-1.0 size=22684416kB time=06:02:31.99 bitrate=8543.2kbits/s speed=73.4x    frame=1307735 fps=4407 q=-1.0 size=22724352kB time=06:03:04.14 bitrate=8545.6kbits/s speed=73.4x    frame=1309661 fps=4406 q=-1.0 size=22764288kB time=06:03:36.22 bitrate=8548.0kbits/s speed=73.4x    frame=1311415 fps=4405 q=-1.0 size=22800896kB time=06:04:05.43 bitrate=8550.3kbits/s speed=73.4x    frame=1313463 fps=4404 q=-1.0 size=22843392kB time=06:04:39.53 bitrate=8552.9kbits/s speed=73.4x    frame=1315523 fps=4404 q=-1.0 size=22884608kB time=06:05:13.81 bitrate=8554.9kbits/s speed=73.4x    frame=1317528 fps=4403 q=-1.0 size=22921728kB time=06:05:47.24 bitrate=8555.7kbits/s speed=73.3x    frame=1319246 fps=4401 q=-1.0 size=22957568kB time=06:06:15.85 bitrate=8558.0kbits/s speed=73.3x    frame=1321640 fps=4402 q=-1.0 size=22996992kB time=06:06:55.71 bitrate=8557.1kbits/s speed=73.3x    frame=1323491 fps=4401 q=-1.0 size=23035392kB time=06:07:26.54 bitrate=8559.4kbits/s speed=73.3x    frame=1325435 fps=4400 q=-1.0 size=23075840kB time=06:07:58.94 bitrate=8561.9kbits/s speed=73.3x    frame=1327410 fps=4399 q=-1.0 size=23116800kB time=06:08:31.83 bitrate=8564.3kbits/s speed=73.3x    frame=1329238 fps=4398 q=-1.0 size=23154688kB time=06:09:02.26 bitrate=8566.6kbits/s speed=73.3x    frame=1331181 fps=4397 q=-1.0 size=23195392kB time=06:09:34.63 bitrate=8569.1kbits/s speed=73.2x    frame=1333114 fps=4396 q=-1.0 size=23235072kB time=06:10:06.83 bitrate=8571.3kbits/s speed=73.2x    frame=1334888 fps=4395 q=-1.0 size=23272192kB time=06:10:36.38 bitrate=8573.6kbits/s speed=73.2x    frame=1336762 fps=4394 q=-1.0 size=23310848kB time=06:11:07.61 bitrate=8575.8kbits/s speed=73.2x    frame=1338653 fps=4393 q=-1.0 size=23350272kB time=06:11:39.14 bitrate=8578.1kbits/s speed=73.2x    frame=1340349 fps=4391 q=-1.0 size=23385600kB time=06:12:07.41 bitrate=8580.3kbits/s speed=73.1x    frame=1342226 fps=4390 q=-1.0 size=23424512kB time=06:12:38.66 bitrate=8582.5kbits/s speed=73.1x    frame=1344065 fps=4389 q=-1.0 size=23462912kB time=06:13:09.31 bitrate=8584.8kbits/s speed=73.1x    frame=1345891 fps=4388 q=-1.0 size=23500544kB time=06:13:39.72 bitrate=8586.9kbits/s speed=73.1x    frame=1348110 fps=4388 q=-1.0 size=23541504kB time=06:14:16.69 bitrate=8587.7kbits/s speed=73.1x    frame=1350545 fps=4389 q=-1.0 size=23584000kB time=06:14:57.22 bitrate=8587.7kbits/s speed=73.1x    frame=1352223 fps=4387 q=-1.0 size=23618560kB time=06:15:25.18 bitrate=8589.6kbits/s speed=73.1x    frame=1353981 fps=4386 q=-1.0 size=23655168kB time=06:15:54.48 bitrate=8591.8kbits/s speed=73.1x    frame=1355940 fps=4385 q=-1.0 size=23695872kB time=06:16:27.10 bitrate=8594.1kbits/s speed=  73x    frame=1357704 fps=4383 q=-1.0 size=23732480kB time=06:16:56.47 bitrate=8596.2kbits/s speed=  73x    frame=1359619 fps=4383 q=-1.0 size=23772160kB time=06:17:28.34 bitrate=8598.5kbits/s speed=  73x    frame=1361494 fps=4381 q=-1.0 size=23811328kB time=06:17:59.57 bitrate=8600.8kbits/s speed=  73x    frame=1363200 fps=4380 q=-1.0 size=23846656kB time=06:18:28.01 bitrate=8602.8kbits/s speed=  73x    frame=1365005 fps=4379 q=-1.0 size=23884288kB time=06:18:58.07 bitrate=8605.0kbits/s speed=72.9x    frame=1366902 fps=4378 q=-1.0 size=23923456kB time=06:19:29.66 bitrate=8607.1kbits/s speed=72.9x    frame=1368699 fps=4376 q=-1.0 size=23961088kB time=06:19:59.60 bitrate=8609.3kbits/s speed=72.9x    frame=1370548 fps=4375 q=-1.0 size=23999488kB time=06:20:30.40 bitrate=8611.5kbits/s speed=72.9x    frame=1372534 fps=4375 q=-1.0 size=24040704kB time=06:21:03.44 bitrate=8613.8kbits/s speed=72.9x    frame=1374382 fps=4374 q=-1.0 size=24079104kB time=06:21:34.26 bitrate=8616.0kbits/s speed=72.9x    frame=1376351 fps=4373 q=-1.0 size=24120064kB time=06:22:07.06 bitrate=8618.3kbits/s speed=72.8x    frame=1378228 fps=4372 q=-1.0 size=24159232kB time=06:22:38.33 bitrate=8620.5kbits/s speed=72.8x    frame=1379926 fps=4370 q=-1.0 size=24194304kB time=06:23:06.58 bitrate=8622.4kbits/s speed=72.8x    frame=1382086 fps=4370 q=-1.0 size=24233216kB time=06:23:42.58 bitrate=8622.8kbits/s speed=72.8x    frame=1384259 fps=4370 q=-1.0 size=24273408kB time=06:24:18.74 bitrate=8623.5kbits/s speed=72.8x    frame=1386235 fps=4370 q=-1.0 size=24311808kB time=06:24:51.69 bitrate=8624.8kbits/s speed=72.8x    frame=1388176 fps=4369 q=-1.0 size=24352000kB time=06:25:24.00 bitrate=8627.0kbits/s speed=72.8x    frame=1390176 fps=4368 q=-1.0 size=24393216kB time=06:25:57.32 bitrate=8629.2kbits/s speed=72.8x    frame=1391892 fps=4367 q=-1.0 size=24429056kB time=06:26:25.92 bitrate=8631.2kbits/s speed=72.7x    frame=1393800 fps=4366 q=-1.0 size=24468480kB time=06:26:57.68 bitrate=8633.3kbits/s speed=72.7x    frame=1395446 fps=4364 q=-1.0 size=24502784kB time=06:27:25.11 bitrate=8635.2kbits/s speed=72.7x    frame=1397363 fps=4363 q=-1.0 size=24542720kB time=06:27:57.05 bitrate=8637.4kbits/s speed=72.7x    frame=1399171 fps=4362 q=-1.0 size=24580096kB time=06:28:27.14 bitrate=8639.4kbits/s speed=72.7x    frame=1400864 fps=4361 q=-1.0 size=24615424kB time=06:28:55.37 bitrate=8641.4kbits/s speed=72.6x    frame=1402682 fps=4360 q=-1.0 size=24653056kB time=06:29:25.62 bitrate=8643.4kbits/s speed=72.6x    frame=1404530 fps=4359 q=-1.0 size=24691456kB time=06:29:56.42 bitrate=8645.4kbits/s speed=72.6x    frame=1406304 fps=4357 q=-1.0 size=24728576kB time=06:30:25.98 bitrate=8647.5kbits/s speed=72.6x    frame=1408287 fps=4357 q=-1.0 size=24769792kB time=06:30:59.02 bitrate=8649.7kbits/s speed=72.6x    frame=1410108 fps=4356 q=-1.0 size=24807680kB time=06:31:29.35 bitrate=8651.8kbits/s speed=72.6x    frame=1411863 fps=4354 q=-1.0 size=24844288kB time=06:31:58.57 bitrate=8653.8kbits/s speed=72.5x    frame=1413770 fps=4353 q=-1.0 size=24883712kB time=06:32:30.36 bitrate=8655.8kbits/s speed=72.5x    frame=1415844 fps=4353 q=-1.0 size=24922880kB time=06:33:04.88 bitrate=8656.7kbits/s speed=72.5x    frame=1417728 fps=4352 q=-1.0 size=24960000kB time=06:33:36.29 bitrate=8658.1kbits/s speed=72.5x    frame=1420008 fps=4353 q=-1.0 size=24999168kB time=06:34:14.24 bitrate=8657.8kbits/s speed=72.5x    frame=1421769 fps=4351 q=-1.0 size=25035776kB time=06:34:43.59 bitrate=8659.7kbits/s speed=72.5x    frame=1423551 fps=4350 q=-1.0 size=25072384kB time=06:35:13.26 bitrate=8661.5kbits/s speed=72.5x    frame=1425449 fps=4349 q=-1.0 size=25111808kB time=06:35:44.88 bitrate=8663.6kbits/s speed=72.4x    frame=1427172 fps=4348 q=-1.0 size=25147904kB time=06:36:13.58 bitrate=8665.6kbits/s speed=72.4x    frame=1428974 fps=4347 q=-1.0 size=25185024kB time=06:36:43.59 bitrate=8667.4kbits/s speed=72.4x    frame=1430874 fps=4346 q=-1.0 size=25224704kB time=06:37:15.22 bitrate=8669.6kbits/s speed=72.4x    frame=1432636 fps=4345 q=-1.0 size=25261568kB time=06:37:44.58 bitrate=8671.5kbits/s speed=72.4x    frame=1434481 fps=4344 q=-1.0 size=25299456kB time=06:38:15.28 bitrate=8673.4kbits/s speed=72.4x    frame=1436361 fps=4343 q=-1.0 size=25338880kB time=06:38:46.61 bitrate=8675.5kbits/s speed=72.3x    frame=1438106 fps=4341 q=-1.0 size=25374976kB time=06:39:15.63 bitrate=8677.4kbits/s speed=72.3x    frame=1439999 fps=4341 q=-1.0 size=25414400kB time=06:39:47.15 bitrate=8679.4kbits/s speed=72.3x    frame=1441814 fps=4339 q=-1.0 size=25452032kB time=06:40:17.38 bitrate=8681.3kbits/s speed=72.3x    frame=1443688 fps=4339 q=-1.0 size=25486848kB time=06:40:48.59 bitrate=8681.9kbits/s speed=72.3x    frame=1445545 fps=4338 q=-1.0 size=25525248kB time=06:41:19.55 bitrate=8683.8kbits/s speed=72.3x    frame=1447771 fps=4338 q=-1.0 size=25564672kB time=06:41:56.64 bitrate=8683.9kbits/s speed=72.3x    frame=1449505 fps=4337 q=-1.0 size=25600256kB time=06:42:25.51 bitrate=8685.6kbits/s speed=72.2x    frame=1451341 fps=4336 q=-1.0 size=25638656kB time=06:42:56.09 bitrate=8687.6kbits/s speed=72.2x    frame=1453265 fps=4335 q=-1.0 size=25678336kB time=06:43:28.14 bitrate=8689.5kbits/s speed=72.2x    frame=1454957 fps=4333 q=-1.0 size=25713664kB time=06:43:56.30 bitrate=8691.4kbits/s speed=72.2x    frame=1456815 fps=4332 q=-1.0 size=25752320kB time=06:44:27.26 bitrate=8693.3kbits/s speed=72.2x    frame=1458698 fps=4332 q=-1.0 size=25791488kB time=06:44:58.63 bitrate=8695.3kbits/s speed=72.2x    frame=1460407 fps=4330 q=-1.0 size=25827072kB time=06:45:27.08 bitrate=8697.1kbits/s speed=72.1x    frame=1462182 fps=4329 q=-1.0 size=25863680kB time=06:45:56.65 bitrate=8698.9kbits/s speed=72.1x    frame=1464087 fps=4328 q=-1.0 size=25903360kB time=06:46:28.36 bitrate=8700.9kbits/s speed=72.1x    frame=1465718 fps=4327 q=-1.0 size=25937408kB time=06:46:55.52 bitrate=8702.6kbits/s speed=72.1x    frame=1467589 fps=4326 q=-1.0 size=25976064kB time=06:47:26.71 bitrate=8704.5kbits/s speed=72.1x    frame=1469478 fps=4325 q=-1.0 size=26015488kB time=06:47:58.18 bitrate=8706.5kbits/s speed=  72x    frame=1471135 fps=4324 q=-1.0 size=26049792kB time=06:48:25.75 bitrate=8708.2kbits/s speed=  72x    frame=1472977 fps=4323 q=-1.0 size=26087936kB time=06:48:56.43 bitrate=8710.0kbits/s speed=  72x    frame=1474720 fps=4321 q=-1.0 size=26124544kB time=06:49:25.50 bitrate=8711.9kbits/s speed=  72x    frame=1476358 fps=4320 q=-1.0 size=26158592kB time=06:49:52.79 bitrate=8713.6kbits/s speed=  72x    frame=1478241 fps=4319 q=-1.0 size=26197504kB time=06:50:24.15 bitrate=8715.4kbits/s speed=71.9x    frame=1480415 fps=4319 q=-1.0 size=26237184kB time=06:51:00.33 bitrate=8715.8kbits/s speed=71.9x    frame=1482185 fps=4318 q=-1.0 size=26274048kB time=06:51:29.81 bitrate=8717.6kbits/s speed=71.9x    frame=1484417 fps=4318 q=-1.0 size=26312192kB time=06:52:06.99 bitrate=8717.2kbits/s speed=71.9x    frame=1486303 fps=4317 q=-1.0 size=26351616kB time=06:52:38.39 bitrate=8719.2kbits/s speed=71.9x    frame=1488027 fps=4316 q=-1.0 size=26387456kB time=06:53:07.14 bitrate=8720.9kbits/s speed=71.9x    frame=1489946 fps=4315 q=-1.0 size=26427136kB time=06:53:39.07 bitrate=8722.8kbits/s speed=71.9x    frame=1491853 fps=4315 q=-1.0 size=26466816kB time=06:54:10.83 bitrate=8724.7kbits/s speed=71.9x    frame=1493709 fps=4314 q=-1.0 size=26505216kB time=06:54:41.77 bitrate=8726.5kbits/s speed=71.9x    frame=1495892 fps=4314 q=-1.0 size=26550784kB time=06:55:18.15 bitrate=8728.7kbits/s speed=71.9x    frame=1498099 fps=4314 q=-1.0 size=26596608kB time=06:55:54.89 bitrate=8730.9kbits/s speed=71.9x    frame=1499979 fps=4313 q=-1.0 size=26635520kB time=06:56:26.20 bitrate=8732.7kbits/s speed=71.8x    frame=1501875 fps=4312 q=-1.0 size=26674688kB time=06:56:57.78 bitrate=8734.5kbits/s speed=71.8x    frame=1503755 fps=4312 q=-1.0 size=26713856kB time=06:57:29.09 bitrate=8736.4kbits/s speed=71.8x    frame=1505517 fps=4311 q=-1.0 size=26750464kB time=06:57:58.40 bitrate=8738.2kbits/s speed=71.8x    frame=1507387 fps=4310 q=-1.0 size=26789376kB time=06:58:29.55 bitrate=8740.0kbits/s speed=71.8x    frame=1509304 fps=4309 q=-1.0 size=26829312kB time=06:59:01.50 bitrate=8741.9kbits/s speed=71.8x    frame=1511075 fps=4308 q=-1.0 size=26865920kB time=06:59:30.97 bitrate=8743.6kbits/s speed=71.8x    frame=1512996 fps=4307 q=-1.0 size=26906112kB time=07:00:02.97 bitrate=8745.6kbits/s speed=71.7x    frame=1515211 fps=4307 q=-1.0 size=26944768kB time=07:00:39.86 bitrate=8745.4kbits/s speed=71.8x    frame=1517279 fps=4307 q=-1.0 size=26987776kB time=07:01:14.31 bitrate=8747.4kbits/s speed=71.7x    frame=1518057 fps=4307 q=-1.0 Lsize=27004030kB time=07:01:27.27 bitrate=8748.2kbits/s speed=71.7x    
video:26349774kB audio:603428kB subtitle:0kB other streams:0kB global headers:0kB muxing overhead: 0.188577%
